<svg width="91" height="106" viewBox="0 0 91 106" fill="none" xmlns="http://www.w3.org/2000/svg">
<path fill-rule="evenodd" clip-rule="evenodd" d="M32.6052 49.1106C34.0889 48.1784 34.8247 46.6522 35.3782 46.3924C35.7856 46.2013 35.7781 44.8825 36.5945 44.4157C37.6901 43.7893 41.1813 43.3235 42.4515 43.2364C43.6706 43.1528 45.7911 43.3284 46.9349 43.7137C48.8424 44.3563 49.6033 45.5821 50.4433 47.1613C50.4433 47.1613 31.5858 49.751 32.6052 49.1106Z" fill="#EDB98A"/>
<path fill-rule="evenodd" clip-rule="evenodd" d="M60.2759 50.1996H30.1271L19.6916 58.2129L15.0599 91.8943L21.6479 93.6651L62.3539 94.2523L75.0668 91.1497L75.86 67.7048L60.2759 50.1996Z" fill="#FFE68F"/>
<path fill-rule="evenodd" clip-rule="evenodd" d="M19.299 85.7757C19.509 85.6852 19.728 85.5816 19.9678 85.5745C20.3797 85.5621 20.3803 85.0088 19.9678 85.0213C19.6081 85.0321 19.2921 85.1616 18.9755 85.298C18.6062 85.4572 18.9311 85.9342 19.299 85.7757M19.9678 70.2053C19.6867 70.2055 19.4034 70.2362 19.1875 70.4058C19.0591 70.5068 19.0693 70.695 19.1875 70.797C19.314 70.9061 19.5128 70.8976 19.6407 70.797C19.599 70.8297 19.6403 70.7973 19.6555 70.79C19.6591 70.7884 19.6611 70.7872 19.662 70.7864C19.6652 70.7857 19.6684 70.7852 19.6736 70.784C19.7071 70.7768 19.7402 70.7696 19.7741 70.7644C19.7747 70.7658 19.8456 70.7603 19.8623 70.7597C19.8975 70.7586 19.9326 70.7585 19.9678 70.7585C20.1416 70.7584 20.2882 70.632 20.2882 70.4819C20.2882 70.3325 20.141 70.2052 19.9678 70.2053M22.981 76.4102C23.0728 76.7576 23.6905 76.6097 23.5989 76.2631C23.4658 75.7592 23.4901 75.243 23.5989 74.7373C23.6739 74.3888 23.0562 74.2408 22.981 74.5903C22.8504 75.1969 22.8212 75.8056 22.981 76.4102M23.7904 56.5302C24.2676 56.4323 24.7397 56.4207 25.2279 56.4206C25.6409 56.4204 25.6403 55.8673 25.2279 55.8674C24.6834 55.8675 24.1519 55.8877 23.62 55.9968C23.2184 56.0791 23.3895 56.6123 23.7904 56.5302M25.3896 70.0038C25.6664 69.8843 25.9433 69.7649 26.2201 69.6454C26.5895 69.486 26.2645 69.009 25.8967 69.1677L25.0661 69.5262C24.6968 69.6856 25.0217 70.1626 25.3896 70.0038M25.5049 80.8971C25.856 81.334 26.3497 81.6055 26.9421 81.7411C27.3418 81.8325 27.5109 81.2988 27.1125 81.2077C26.6888 81.1107 26.3124 80.9342 26.0582 80.6179C25.8246 80.327 25.2693 80.6039 25.5049 80.8971M27.7192 61.4213C27.8142 61.2681 27.9572 61.2034 28.1347 61.1999C28.5471 61.1917 28.5472 60.6386 28.1347 60.6467C27.7302 60.6546 27.3592 60.83 27.1659 61.1422C26.9714 61.4563 27.5248 61.7354 27.7192 61.4213M31.784 65.1813C31.8988 65.2893 32.1216 65.2866 32.2371 65.1813C32.3078 65.1168 32.3673 65.0449 32.4141 64.966C32.4318 64.936 32.4486 64.9055 32.4681 64.8764C32.4769 64.8635 32.4866 64.8506 32.4965 64.8382C32.4999 64.8356 32.5068 64.8294 32.514 64.8228C32.6372 64.7105 32.634 64.5446 32.514 64.4317C32.3991 64.3237 32.1763 64.3264 32.0608 64.4317C31.9902 64.4961 31.9306 64.5681 31.8839 64.647C31.8662 64.6769 31.8494 64.7074 31.8298 64.7366C31.8211 64.7495 31.8114 64.7623 31.8014 64.7748C31.7981 64.7773 31.7912 64.7836 31.784 64.7901C31.6608 64.9025 31.6639 65.0684 31.784 65.1813M32.1257 73.3494C32.543 73.5142 33.0007 73.5142 33.4181 73.3494C33.5762 73.2869 33.6136 73.09 33.533 72.971C33.4396 72.8331 33.2519 72.8096 33.0946 72.8717C32.9053 72.9465 32.6381 72.9464 32.4491 72.8717C32.2911 72.8094 32.1052 72.8315 32.0107 72.971C31.9296 73.0907 31.9683 73.2872 32.1257 73.3494M33.2641 79.131C33.3358 79.2775 33.4906 79.3553 33.6716 79.3613C33.851 79.3672 33.9845 79.2298 33.9921 79.0847C33.9969 78.9909 33.9382 78.9108 33.8538 78.8612C33.8537 78.856 33.8536 78.8509 33.8536 78.8457C33.8535 78.6907 33.7068 78.5759 33.5331 78.5692C33.3602 78.5624 33.2126 78.7011 33.2127 78.8457C33.2128 78.9434 33.2198 79.0402 33.2641 79.131M34.9175 88.3226C35.4288 88.3297 35.9285 88.4349 36.44 88.4421C36.8533 88.4478 36.852 87.8946 36.44 87.8889C35.9286 87.8817 35.4289 87.7765 34.9175 87.7694C34.5042 87.7636 34.5055 88.3168 34.9175 88.3226M37.0441 52.8745C37.3434 53.1207 37.7132 53.2419 38.0778 53.3957C38.4473 53.5515 38.7718 53.0743 38.4013 52.9181C38.0924 52.7878 37.7504 52.6915 37.4971 52.4834C37.1984 52.2377 36.7447 52.6285 37.0441 52.8745M37.8477 59.2504C38.0577 59.1599 38.2766 59.0564 38.5164 59.0492C38.9283 59.0367 38.9289 58.4836 38.5164 58.496C38.1567 58.5068 37.8408 58.6363 37.5242 58.7728C37.1547 58.9319 37.4797 59.4089 37.8477 59.2504M41.7 84.84C41.7948 84.6867 41.9378 84.622 42.1154 84.6185C42.5278 84.6104 42.528 84.0573 42.1154 84.0654C41.7108 84.0733 41.3398 84.2487 41.1465 84.5608C40.952 84.875 41.5054 85.154 41.7 84.84M43.0341 72.8282C43.1616 72.7271 43.1527 72.5395 43.0341 72.4371C42.8956 72.3176 42.7572 72.1981 42.6187 72.0786C42.4921 71.9693 42.2936 71.9772 42.1656 72.0786C42.0381 72.1796 42.047 72.3673 42.1656 72.4698C42.3041 72.5893 42.4425 72.7087 42.5809 72.8282C42.7076 72.9375 42.9061 72.9295 43.0341 72.8282M44.607 91.5486C45.0693 91.5393 45.5027 91.4248 45.938 91.2998C46.328 91.1877 46.1598 90.6536 45.7676 90.7663C45.3893 90.875 45.0092 90.9873 44.607 90.9954C44.1946 91.0037 44.1944 91.5569 44.607 91.5486M46.6833 79.7197C47.101 79.7097 47.4475 79.5261 47.7404 79.2802C48.0367 79.0316 47.5831 78.6408 47.2873 78.8892C47.1196 79.0298 46.9261 79.1608 46.6833 79.1666C46.271 79.1765 46.2707 79.7296 46.6833 79.7197M45.3939 64.5077C45.3889 64.655 45.3168 64.8128 45.2109 64.9096C44.9277 65.1685 45.3803 65.5601 45.6641 65.3008C45.8981 65.0868 46.0249 64.8005 46.0348 64.5077C46.0467 64.1511 45.4057 64.1526 45.3939 64.5077M50.2821 52.4601C50.4162 52.2335 50.5919 51.9677 50.8593 51.8424C51.2223 51.6724 50.8984 51.195 50.5358 51.3648C50.1724 51.535 49.9124 51.8705 49.7287 52.1809C49.5413 52.4977 50.0945 52.7772 50.2821 52.4601M51.1128 58.2128C51.2615 58.2091 51.409 58.1872 51.5524 58.1536C51.6137 58.1392 51.6743 58.1227 51.7356 58.1083C51.7619 58.1022 51.8735 58.0901 51.8049 58.0933C51.9784 58.0853 52.1253 57.9732 52.1253 57.8167C52.1253 57.673 51.9779 57.5321 51.8049 57.5402C51.5671 57.5512 51.3508 57.6538 51.1128 57.6596C50.7006 57.6697 50.7003 58.2228 51.1128 58.2128M53.1891 67.0545H53.8813C54.2943 67.0545 54.2936 66.5013 53.8813 66.5013H53.1891C52.7761 66.5013 52.7768 67.0545 53.1891 67.0545M53.9965 91.5107C54.2063 91.6014 54.4537 91.6873 54.6237 91.826C54.9234 92.0706 55.3771 91.6799 55.0768 91.4348C54.8603 91.2582 54.5835 91.147 54.3198 91.0332C54.1645 90.9661 53.9735 90.9964 53.8814 91.1324C53.7982 91.2553 53.8417 91.444 53.9965 91.5107M55.5429 84.5216C55.5697 84.5151 55.5981 84.5106 55.6252 84.5075C55.7342 84.4947 55.8482 84.4992 55.9576 84.4991C56.3706 84.4989 56.37 83.9458 55.9576 83.946C55.6326 83.9461 55.2944 83.95 55.0389 84.1465C54.9092 84.2462 54.9218 84.4365 55.0389 84.5375C55.1662 84.6475 55.3629 84.6369 55.492 84.5375C55.4784 84.5481 55.5251 84.5259 55.5429 84.5216M55.9574 75.1217C55.8643 74.956 55.8629 74.848 55.8627 74.6638C55.8624 74.3073 55.2216 74.3079 55.2219 74.6638C55.2221 74.9312 55.2681 75.1588 55.4041 75.4009C55.4799 75.5358 55.702 75.571 55.8424 75.5001C55.9999 75.4206 56.0328 75.256 55.9574 75.1217M57.8103 62.1459C58.182 62.255 58.5138 62.4094 58.8412 62.5959C59.1866 62.7927 59.5073 62.3135 59.1646 62.1183C58.7911 61.9055 58.4047 61.7369 57.9807 61.6124C57.5887 61.4974 57.422 62.0318 57.8103 62.1459M59.9719 52.8361C60.248 52.8427 60.533 52.9341 60.7791 53.0373C61.1489 53.1923 61.4734 52.7151 61.1025 52.5596C60.751 52.4122 60.3664 52.2924 59.9719 52.2829C59.5586 52.2729 59.5604 52.8261 59.9719 52.8361M60.9408 77.6885C61.0494 77.6927 61.1423 77.6421 61.1998 77.5692C61.2058 77.5692 61.2117 77.569 61.2176 77.569C61.3972 77.569 61.5302 77.4424 61.5381 77.2925C61.5458 77.1432 61.3852 77.0158 61.2176 77.0159C61.1045 77.016 60.9923 77.0219 60.8872 77.0602C60.7175 77.122 60.6273 77.2557 60.6204 77.412C60.6136 77.5668 60.7726 77.682 60.9408 77.6885M62.5167 58.5614C62.9103 58.6724 63.0774 58.1381 62.6871 58.028C62.229 57.8987 61.7608 57.7987 61.3028 57.6695C60.9092 57.5585 60.7421 58.0928 61.1325 58.2029C61.5904 58.3321 62.0587 58.4321 62.5167 58.5614M63.9539 69.0022C64.076 69.3417 64.6943 69.1959 64.5719 68.8551C64.4537 68.5261 64.4452 68.1951 64.4449 67.8533C64.4447 67.4968 63.8038 67.4974 63.8041 67.8533C63.8043 68.2423 63.8195 68.6278 63.9539 69.0022M68.2385 81.5076C68.2618 81.6453 68.3884 81.7446 68.554 81.751C68.7227 81.7575 68.8806 81.6191 68.8745 81.4744C68.8627 81.1959 68.5997 80.969 68.2772 80.9588C68.0978 80.9531 67.9643 81.0901 67.9568 81.2354C67.9494 81.3767 68.0861 81.487 68.2385 81.5076M70.4068 65.6109C70.7454 65.7084 71.1073 65.8013 71.3727 66.0177C71.6727 66.262 72.1264 65.8714 71.8259 65.6265C71.4758 65.3413 71.0255 65.2067 70.5771 65.0774C70.1844 64.9643 70.0176 65.4987 70.4068 65.6109M71.8763 76.3567C71.9694 76.4941 72.1579 76.5189 72.3147 76.456C72.5249 76.3716 72.7569 76.3744 72.9836 76.3742C73.3965 76.3739 73.3959 75.8208 72.9836 75.8211C72.634 75.8213 72.3115 75.8498 71.9912 75.9783C71.8336 76.0416 71.7953 76.2371 71.8763 76.3567M72.7067 89.3979C72.8862 89.4036 73.0196 89.2666 73.0271 89.1214C73.0345 88.9801 72.8979 88.8698 72.7453 88.8492C72.7221 88.7115 72.5955 88.6122 72.4299 88.6058C72.2612 88.5992 72.1033 88.7376 72.1095 88.8824C72.1212 89.1608 72.3841 89.3877 72.7067 89.3979M14.3237 91.4894C14.4325 91.1513 14.6816 90.8781 14.8699 90.5739C14.933 90.4714 14.955 90.4076 14.9892 90.3325C15.0356 90.4128 15.1258 90.4732 15.2614 90.4732C15.5216 90.4733 15.8259 90.4589 16.0687 90.555C16.2266 90.6174 16.4126 90.5952 16.5071 90.4557C16.5882 90.3359 16.5495 90.1395 16.3921 90.0773C16.0343 89.9358 15.6496 89.9202 15.2614 89.92C15.1656 89.92 15.093 89.9505 15.0417 89.9963C14.8934 88.2427 14.897 86.488 15.0374 84.7332C15.1871 82.858 15.5316 81.0201 15.8921 79.1691C16.0667 78.2716 16.2934 77.3651 16.2493 76.451C16.2052 75.5431 15.7543 74.6967 16.0739 73.7861C16.202 73.421 16.4215 73.0863 16.5641 72.7254C16.7171 72.3368 16.7035 71.953 16.6338 71.5506C16.4904 70.7312 16.2526 69.9215 16.6331 69.1215C16.8012 68.7668 17.0737 68.4501 17.205 68.0837C17.3684 67.628 17.346 67.1239 17.3732 66.6517C17.4285 65.6988 17.4429 64.7398 17.5343 63.789C17.5751 63.3631 17.664 62.9593 17.8666 62.5686C18.0614 62.1925 18.3505 61.8502 18.4794 61.4512C18.6076 61.0585 18.6188 60.6443 18.6877 60.2426C18.7598 59.818 18.8728 59.3997 19.025 58.9917C19.6129 57.4124 20.6904 55.9936 21.9632 54.7635C23.3162 53.4559 24.9336 52.4713 26.6502 51.5538C27.5529 51.0713 28.4556 50.5888 29.3576 50.1063C29.3769 50.1968 29.4437 50.28 29.5722 50.317C29.9109 50.4147 30.2726 50.5074 30.5381 50.7238C30.8381 50.9682 31.2919 50.5776 30.9913 50.3327C30.6778 50.0772 30.2837 49.9427 29.8827 49.8245C30.2938 49.6009 30.7092 49.3693 31.173 49.2401C31.5792 49.1267 32.1783 49.2256 32.5076 48.9684C32.7663 48.7658 32.8481 48.3904 32.9473 48.1152C33.0715 47.7736 33.1788 47.4133 33.3366 47.0814C33.444 46.8546 33.6002 46.6368 33.7973 46.4612C33.8838 46.1735 34.0425 45.9108 34.3228 45.7511C35.0565 45.332 35.9577 45.7483 36.2805 46.3457C36.5473 46.345 36.8284 46.3955 37.088 46.4093C37.6215 46.4384 38.1558 46.4515 38.6901 46.4501C39.7355 46.4474 40.7817 46.3886 41.8182 46.269C43.6719 46.0546 45.4702 45.6225 47.2926 45.2857C47.3031 45.265 47.3151 45.2442 47.3295 45.2235C47.722 44.6551 48.7001 44.7512 49.3162 44.9663C49.5805 45.0582 49.8496 45.1744 50.001 45.3901C50.1612 45.4835 50.2998 45.5969 50.3919 45.7165C50.5826 45.9633 50.73 46.4612 51.1169 46.5027C51.3716 46.5296 51.6304 46.4875 51.8891 46.5193C52.2127 46.558 52.5027 46.6562 52.8015 46.7682C55.0765 47.6208 57.4284 48.5687 59.8973 48.8993C60.4764 48.9767 61.066 49.0569 61.5691 49.337C61.9776 49.5644 62.2933 49.877 62.6305 50.1736C62.9589 50.4626 63.2297 50.5906 63.6983 50.6424C64.267 50.7053 64.7597 50.8409 65.1754 51.1977C65.5207 51.4943 65.7458 51.8732 66.0165 52.2176C66.2922 52.5688 66.6966 52.7666 67.1164 52.9705C68.1089 53.4532 69.0333 54.0361 69.8384 54.7351C71.5342 56.2093 72.5612 58.1039 73.5961 59.9501C74.7152 61.947 75.7614 63.9681 76.4871 66.1006C77.1985 68.1943 77.6214 70.3482 77.8169 72.5221C78.0228 74.8032 78.0516 77.0933 78.223 79.3758C78.3087 80.516 78.3736 81.6576 78.4393 82.7985C78.5034 83.9256 78.5971 85.0547 78.582 86.1832C78.5531 88.3647 78.0477 90.5532 77.164 92.5957C76.9437 93.1039 76.6995 93.6052 76.4392 94.0989C76.2108 94.5325 75.4298 94.4841 75.1846 94.0989C75.1286 94.0104 75.0845 93.9192 75.0476 93.8265C74.4068 93.8314 73.7595 93.7885 73.1227 93.8397C71.998 93.9302 70.871 93.9807 69.7431 94.0409C67.5113 94.1605 65.2756 94.24 63.043 94.3499C62.8264 94.3606 62.6098 94.3713 62.3933 94.3824C63.9843 90.1319 63.7779 85.5365 64.0297 81.1159C64.0499 80.7595 63.4089 80.7616 63.3888 81.1159C63.136 85.5555 63.3513 90.1626 61.7041 94.4201C61.065 94.4574 60.4268 94.503 59.7907 94.5698C59.2765 94.6231 58.7598 94.686 58.2407 94.6639C57.6519 94.6397 57.0767 94.5235 56.5024 94.4225C55.4586 94.2393 54.4533 94.3223 53.4055 94.435C52.2848 94.556 51.1601 94.6231 50.0323 94.6652C45.5159 94.836 40.9691 94.9916 36.4544 94.7309C35.3617 94.668 34.2715 94.5795 33.186 94.4592C32.0678 94.3354 30.9615 94.1273 29.8441 94.0091C28.7427 93.8929 27.73 94.2117 26.6414 94.2704C25.5312 94.3306 24.3912 94.1308 23.2914 94.016C22.9326 93.9784 22.5734 93.9419 22.2141 93.9057C22.6767 91.1693 22.9396 88.4122 23.1951 85.6563C23.228 85.3008 22.5869 85.3039 22.5543 85.6563C22.3009 88.3907 22.0437 91.1272 21.5819 93.8421C19.6774 93.6508 17.7711 93.4573 15.8864 93.1593C15.3497 93.0749 14.8162 92.9373 14.495 92.5238C14.2572 92.2175 14.209 91.842 14.3237 91.4894" fill="black"/>
<path fill-rule="evenodd" clip-rule="evenodd" d="M28.7841 33.4666C28.9561 32.1587 28.7334 29.4249 28.7185 29.2589C28.6242 28.2089 29.1929 24.0627 30.2681 24.4448C32.0716 23.2097 34.4738 22.937 36.72 22.8068C41.3857 22.5361 46.3492 23.1574 49.9519 25.8734C51.7336 27.2839 53.4682 29.3354 53.3288 31.4714C54.9475 33.4962 57.2297 36.2735 55.2127 38.6406C54.5271 39.3968 53.4375 39.6785 52.5762 40.2512C50.8439 41.4599 49.757 43.1944 48.0082 44.3959C43.3751 47.9972 35.508 48.7495 30.9559 44.6533C27.4359 41.6867 28.005 37.2485 28.6242 33.4666C29.0405 30.9239 28.4484 36.0181 28.7841 33.4666Z" fill="#EDB98A"/>
<path fill-rule="evenodd" clip-rule="evenodd" d="M42.9527 17.2604C41.7049 17.0426 40.4236 16.9071 39.1493 16.9479L39.0511 16.9512C38.0923 16.9844 36.8781 17.0577 36.0417 17.5399C35.9936 17.4982 35.9162 17.4767 35.846 17.5057C34.8521 17.9161 33.7589 18.2128 32.7124 18.5076C31.6706 18.801 30.5899 18.9947 29.498 19.0727C29.0872 19.1021 28.7357 19.4858 28.9958 19.83C29.0577 19.912 29.1179 19.9948 29.178 20.0778C29.0776 20.0688 28.9772 20.0595 28.8768 20.0507C28.5464 20.0219 28.2163 20.3269 28.2359 20.6051C28.2481 20.7802 28.27 20.9531 28.3022 21.1239C28.1764 21.1217 28.0513 21.138 27.9305 21.1822C27.3185 21.4057 27.3611 22.0363 27.4069 22.516C27.4703 23.1817 27.7582 23.8869 28.2927 24.3851C27.8936 24.7436 27.6111 25.1718 27.4426 25.6803C27.3204 26.0516 27.2524 26.4471 27.2859 26.8336L27.2966 26.9494C27.3382 27.3688 27.4207 27.8332 27.7696 28.1349C27.9486 28.2905 28.1692 28.3472 28.3795 28.3292C28.2524 29.2959 28.1708 30.2681 28.0941 31.2368L28.0581 31.6998C27.8869 33.9387 27.7583 36.1922 27.7919 38.4349C27.8232 40.5307 28.3019 42.5649 29.788 44.2666C31.1414 45.8161 33.0845 46.9584 35.2828 47.3926C36.4675 47.6271 37.6769 47.6436 38.876 47.4943C39.4572 47.4217 40.0422 47.3104 40.5939 47.1347C41.2045 46.9397 41.6434 46.6528 42.0542 46.2227C42.2486 46.0187 42.155 45.5845 41.7681 45.6253C41.1828 45.6867 40.6486 45.7607 40.0875 45.9104L40.0071 45.9323C39.4483 46.0872 38.8696 46.2027 38.2853 46.2517C37.0886 46.352 35.8736 46.2511 34.7272 45.9371C32.8607 45.4255 31.2532 44.2853 30.2228 42.8526C28.9998 41.1543 28.8615 39.2266 28.8792 37.2739C28.8981 35.1312 28.9786 32.9872 29.1102 30.8468L29.1326 30.49C29.2021 29.3886 29.2692 28.2864 29.3283 27.1842C29.3467 26.8385 29.3747 26.49 29.4251 26.1449C29.8863 25.9112 30.2995 25.589 30.5689 25.1914C31.1101 25.385 31.6793 25.5247 32.2029 25.636C33.4159 25.8941 34.6752 25.9567 35.9098 25.7951C36.2428 25.9141 36.5825 26.0188 36.9273 26.1088C37.0205 26.1445 37.1137 26.1797 37.2069 26.2141C38.0383 26.5218 38.8816 26.7825 39.7593 26.9733L39.9749 27.0198C40.4367 27.1183 40.9384 27.2153 41.4299 27.2457C41.5107 27.2727 41.5978 27.2955 41.693 27.3156C42.1406 27.4096 42.6051 27.4393 43.0638 27.4062C43.5108 27.3737 43.8337 26.983 43.5875 26.6172C43.4076 26.3503 43.2261 26.0841 43.0431 25.8186C43.6801 26.0481 44.338 26.239 45.0015 26.4008C45.6714 26.564 46.3508 26.7016 47.0312 26.8281C47.3949 26.8952 47.7601 26.9546 48.123 27.0217C48.3828 27.0694 48.7817 27.0943 48.9936 27.2423C49.2278 27.4048 49.2941 27.7837 49.3829 28.0174C49.4996 28.3209 49.6091 28.6259 49.7091 28.9343C49.908 29.5497 50.0711 30.174 50.1974 30.8047C50.3237 31.436 50.4085 32.0735 50.4557 32.7131C50.5027 33.352 50.482 33.995 50.5579 34.6312C50.5988 34.9686 51.0175 35.1421 51.3269 34.9064C51.3632 34.8787 51.3998 34.8507 51.436 34.8225L51.49 34.7798C51.7546 34.5724 52.0112 34.3525 52.223 34.105C52.2614 34.0593 52.2981 34.0116 52.3325 33.9632C52.3381 33.9632 52.3429 33.9618 52.3485 33.9584L52.4072 33.9202C53.0537 33.5039 54.1338 32.9613 54.7642 33.6528C54.965 33.873 55.0679 34.1535 55.1533 34.4242L55.303 34.9085C55.3999 35.2247 55.4911 35.5426 55.5444 35.8661C55.6651 36.5907 55.6044 37.426 55.028 38.0068C54.7977 38.2392 54.4804 38.4051 54.1264 38.4487C53.9288 38.4722 53.7338 38.4432 53.5379 38.4217C53.3389 38.4003 53.1471 38.4349 52.948 38.4183C52.6315 38.3913 52.4932 38.719 52.6115 38.9251C52.6754 39.0357 52.7506 39.1311 52.8361 39.212C52.7674 39.2632 52.7018 39.3185 52.6387 39.3766C52.4516 39.4285 52.2838 39.5398 52.1582 39.6871C52.0567 39.806 52.004 39.9353 51.9952 40.0715C51.9841 40.1054 51.9745 40.14 51.9656 40.1752L51.7941 40.416C51.7564 40.4688 51.7188 40.521 51.6811 40.5721C51.2446 41.1668 50.7601 41.6702 50.1582 42.1445C49.5787 42.6009 48.9497 43.0095 48.4052 43.4991L48.3411 43.5572C47.8335 44.0198 47.2985 44.5799 47.4971 45.2526C47.5483 45.4255 47.8273 45.5499 48.0095 45.4331C48.5955 45.0569 48.8905 44.4609 49.3876 44.0045C49.8993 43.5343 50.4661 43.1119 50.9792 42.643C51.4645 42.2005 51.8474 41.6992 52.1359 41.1474C52.251 41.2574 52.4188 41.3355 52.6514 41.3659C53.0511 41.4178 53.4237 41.2152 53.5979 40.9158C53.7099 40.9587 53.8241 40.9974 53.9393 41.0278C54.5452 41.1882 54.9264 40.6053 54.6978 40.1746C54.5756 39.9436 54.4229 39.7431 54.2334 39.5744C54.8258 39.5038 55.4285 39.239 55.8178 38.9085C56.7946 38.0781 56.9289 36.83 56.709 35.7202C56.5923 35.1318 56.391 34.5364 56.1295 33.984C56.084 33.8878 56.0352 33.791 55.9817 33.6956C56.0113 33.6949 56.0416 33.6839 56.0608 33.6624C56.2375 33.4536 56.4524 33.2828 56.5836 33.0491C56.7043 32.8348 56.8385 32.6176 56.9337 32.3943C57.1295 31.9373 57.2254 31.4214 57.2894 30.9381C57.4213 29.9486 57.3702 28.9654 57.195 27.9821C56.897 26.3074 56.1769 24.7048 55.1161 23.2985C55.1738 23.2722 55.2292 23.2406 55.2807 23.2031L55.3062 23.1839L55.3476 23.1515C55.6503 22.9145 55.6242 22.4704 55.3476 22.2304L55.2603 22.1547C55.1497 22.0596 55.0543 21.9843 54.8756 21.8808C54.8492 21.8655 54.8223 21.8511 54.795 21.8377C54.8886 21.6882 54.921 21.5134 54.8559 21.3206C54.6288 20.6488 53.5113 20.6726 52.803 20.9655C52.0194 20.3606 51.1505 19.8354 50.2087 19.4102C47.9656 18.3979 45.4292 17.6919 42.9527 17.2604ZM54.5475 34.9548C54.1287 34.8365 53.5723 35.0848 53.1958 35.2341C52.7186 35.4236 52.3125 35.7036 51.9192 35.9996C51.7234 36.1475 51.6883 36.3896 51.737 36.5963C51.7418 36.617 51.7465 36.6385 51.7522 36.6599C51.8042 36.8805 52.0888 37.054 52.3406 37.0478C52.8673 37.0354 53.1183 36.6419 53.4165 36.3087C53.4516 36.3626 53.4956 36.4124 53.55 36.4497L53.5868 36.4746C53.7105 36.5561 53.8469 36.6213 54.0104 36.615C54.1263 36.6101 54.2374 36.5845 54.3398 36.5382C54.5956 36.4214 54.7082 36.1351 54.6387 35.9021C54.5956 35.7555 54.4964 35.6407 54.3669 35.5612L54.4152 35.5326C54.5185 35.4705 54.6127 35.4049 54.6861 35.3082L54.7027 35.2853H54.6963C54.7762 35.1664 54.7242 35.0046 54.5475 34.9548Z" fill="black"/>
<path fill-rule="evenodd" clip-rule="evenodd" d="M36.7215 41.9662C37.26 41.7766 37.7405 41.4603 38.0918 41.0562C38.2139 40.9158 38.2455 40.7675 38.2199 40.6318C38.1911 40.4792 38.0866 40.341 37.944 40.2482C37.8009 40.1552 37.622 40.1093 37.4491 40.1327C37.2988 40.1531 37.1491 40.2241 37.0307 40.3714L37.006 40.4009C36.7971 40.6447 36.525 40.8448 36.2149 40.9738C35.9161 41.0981 35.5818 41.1561 35.2359 41.1224C34.5772 41.0582 34.1231 40.7506 33.6405 40.333C33.5807 40.2803 33.5208 40.2259 33.4606 40.1707C33.4227 40.1206 33.3699 40.0884 33.3114 40.0715C33.2464 40.0527 33.1729 40.0538 33.1056 40.0741C33.0406 40.0936 32.9826 40.1307 32.9437 40.1801C32.9067 40.2269 32.8857 40.2849 32.8925 40.3515C32.9367 40.7843 33.1988 41.1705 33.5711 41.4738C33.9847 41.8107 34.5329 42.0437 35.049 42.1254C35.6175 42.2155 36.1969 42.151 36.7215 41.9662V41.9662ZM34.7807 35.2896C34.1758 35.607 33.2541 36.347 33.9049 37.1339C34.6709 37.8276 35.7737 37.0322 36.3172 36.6724C36.8211 36.3936 37.3873 37.1107 36.9197 37.4362C32.9927 39.9459 31.399 35.3726 34.4748 34.9164C34.8134 34.8662 34.9392 35.1914 34.7807 35.2896ZM41.8181 32.3702C41.7513 31.6541 40.4878 31.4915 40.3621 32.2001C40.2496 32.8349 40.3821 33.418 40.7133 33.9895C41.0298 34.5354 41.8253 34.2807 41.8854 33.7836C41.9661 33.1171 41.8597 32.8157 41.8181 32.3702ZM32.2003 32.0532C32.0242 31.854 31.7698 31.7181 31.4651 31.7949C30.5131 32.0351 30.7937 33.2018 31.128 33.7697C31.3097 34.078 31.897 34.1562 32.1623 33.8847C32.5949 33.4419 32.8021 32.5576 32.2521 32.1214C32.2372 32.0989 32.2207 32.0761 32.2003 32.0532ZM40.7267 29.2368L40.5763 29.2141C40.1111 29.1446 39.5326 29.0779 39.2035 29.4008C39.0289 29.572 38.9688 29.8902 39.2035 30.054C39.6162 30.3424 40.0725 30.2306 40.567 30.2551C40.9746 30.2752 41.3663 30.3335 41.7589 30.4303C42.6202 30.6428 43.322 31.0307 44.0576 31.4567C44.1542 31.5125 44.2527 31.406 44.2066 31.3281C43.782 30.6101 42.9591 30.0204 42.1348 29.6609C41.6948 29.469 41.2134 29.3098 40.7267 29.2368ZM33.0682 28.9152L32.9531 28.9356C31.7005 29.1616 30.073 29.613 29.4798 30.6751C29.4572 30.8252 29.4811 30.8574 29.5005 30.8785L29.507 30.8855C29.523 30.9034 29.5358 30.9282 29.6112 30.9486C29.6321 30.9443 29.6532 30.9397 29.6746 30.9349C29.9465 30.8734 30.1616 30.7887 30.3699 30.7008L30.5957 30.6047C30.8577 30.4938 31.122 30.387 31.4021 30.3081C31.9998 30.1398 32.6147 30.0213 33.2391 29.958C33.3744 29.9442 33.5047 29.9048 33.6075 29.8373C33.7051 29.7731 33.7796 29.6843 33.8136 29.5663C33.8577 29.4136 33.845 29.2979 33.7501 29.1601C33.6787 29.0566 33.5765 28.9849 33.4592 28.9437C33.3397 28.9017 33.2035 28.8918 33.0682 28.9152Z" fill="black"/>
<path fill-rule="evenodd" clip-rule="evenodd" d="M41.9173 42.3995C41.2687 41.088 39.8532 40.1241 38.2234 39.7717C37.0267 39.5136 35.7707 39.5218 34.5507 39.6243C33.9115 39.6776 33.2259 39.7213 32.6235 39.9261C32.1091 40.1012 31.6899 40.4321 31.3747 40.8205C30.9995 41.2807 30.7443 41.8075 30.5651 42.3474C30.5397 42.4241 30.5158 42.5014 30.4934 42.5792C30.5714 42.9865 30.7368 43.3333 31.1739 43.5894C31.6005 43.8395 32.1094 43.9418 32.6168 43.9781C32.6665 43.9575 32.7146 43.9363 32.7587 43.9146C33.5493 43.5239 34.1058 42.6006 35.1037 42.7256C35.9943 42.8372 36.5805 43.8044 37.1101 44.3715C38.8101 44.5425 40.5088 44.1016 41.892 43.2625C41.9622 42.9753 41.9663 42.6857 41.9173 42.3995M29.338 41.4046C29.474 41.0752 29.6453 40.7562 29.8483 40.4556C30.5195 39.4617 31.5499 38.6697 32.7731 38.217C35.6667 37.1476 39.4106 37.9015 41.7474 39.6554C42.5456 40.255 43.3528 41.1361 43.5968 42.0838C43.6697 42.0963 43.7385 42.129 43.7952 42.1751C45.4835 41.2576 47.2221 40.3749 48.5825 39.1031C49.5705 38.179 50.2577 37.0854 50.6785 35.8837C50.7129 35.7847 50.8977 35.7992 50.8921 35.9086C50.8905 35.9343 50.8889 35.9598 50.8873 35.9854C50.9049 35.9383 50.9881 35.9626 50.9945 36.0083C51.2209 37.4681 51.5041 39.0158 51.2433 40.4833C51.0873 41.3589 50.6265 42 50.0105 42.6921C49.3505 43.4341 48.6033 44.1242 47.8394 44.786C47.3546 45.2061 46.8482 45.6907 46.2546 45.9987C45.5642 46.3566 44.781 46.6287 44.0442 46.9048C43.2946 47.1865 42.5338 47.4468 41.7586 47.6724C40.209 48.1251 38.6074 48.438 36.9779 48.575C35.6731 48.6844 34.1819 48.8035 32.9315 48.3798C31.9731 48.0552 31.1995 47.4683 30.5859 46.7622C29.9179 45.9932 29.3899 45.1172 29.0979 44.1934C28.7946 43.2339 29.2741 41.5593 29.338 41.4046" fill="black"/>
<path fill-rule="evenodd" clip-rule="evenodd" d="M28.0263 35.9085C28.5656 36.5339 29.5655 36.7331 30.4878 36.6643C32.4769 36.499 33.1029 34.5491 33.1681 33.0335C31.8343 33.3573 33.2809 31.0635 28.7213 30.8113C27.114 30.6957 27.5572 31.5336 26.847 32.1458C26.8616 33.4306 27.1094 34.8268 28.0263 35.9085M37.5005 34.4321C38.6748 39.1791 45.1055 38.05 45.7811 33.7708C45.1573 33.3908 45.3216 32.4524 44.5466 32.1125C43.3184 31.4351 41.7831 31.4641 40.3884 31.48C38.6057 31.5857 38.0976 32.2232 37.1819 32.9186C37.2259 33.3831 37.353 33.9337 37.5005 34.4321M25.4788 30.0251C25.5447 30.0156 25.6107 30.0067 25.6767 29.9983C25.7282 29.9731 25.7887 29.9537 25.8591 29.942C26.0197 29.9068 26.1792 29.8831 26.3384 29.8703C28.624 29.4263 33.9115 30.0567 34.1297 31.7402C34.8576 31.95 35.4874 31.7622 36.331 31.7808C36.9731 29.4641 48.0744 29.7911 48.6083 31.1878C48.6103 31.1874 48.6123 31.1869 48.6144 31.1864C49.1274 31.0493 49.8837 31.0824 50.4708 31.0607C51.7246 31.038 52.9797 31.1345 54.2064 31.3627C56.5034 31.6778 59.6384 32.0467 58.0408 34.5227C58.0405 34.5231 58.0403 34.5236 58.0399 34.524L58.0396 34.5238C57.7643 34.7674 57.297 34.5712 57.2797 34.2414C57.8168 33.0685 56.6037 32.9276 55.6703 32.5905C53.3478 31.8703 50.9832 31.7705 48.5811 31.9932C48.4004 32.1769 48.1262 32.337 47.8364 32.4208C46.2304 32.651 47.0768 33.6793 46.0616 33.8289C46.2481 37.4135 41.2061 39.3702 38.2847 37.0138C37.1183 36.0294 36.8403 34.5712 36.5698 33.2568C36.4269 33.2291 36.3359 33.1616 36.2828 33.0723C35.9389 32.7759 35.7229 32.5022 35.0429 32.4208C34.3628 32.3395 33.8394 32.5028 33.7685 32.5528C33.7507 32.5838 33.7315 32.6149 33.7093 32.6461C33.6782 32.6924 33.6359 32.7294 33.5878 32.7586C34.2593 36.3281 31.0489 38.5856 27.8079 36.7342C26.3997 35.5907 26.1021 33.8401 26.0433 32.2776C25.8524 32.1781 25.7315 31.9854 25.7976 31.7431C25.8887 31.4092 25.6751 31.12 25.335 30.9748C24.8931 30.7862 24.9712 30.0976 25.4788 30.0251" fill="black"/>
</svg>
