<svg width="523" height="656" viewBox="0 0 523 656" fill="none" xmlns="http://www.w3.org/2000/svg">
<path fill-rule="evenodd" clip-rule="evenodd" d="M187.39 303.929C195.918 298.161 200.146 288.716 203.328 287.108C205.669 285.925 205.626 277.763 210.318 274.874C216.615 270.998 236.68 268.115 243.98 267.576C250.986 267.058 263.173 268.145 269.747 270.53C280.71 274.507 285.082 282.093 289.91 291.866C289.91 291.866 181.532 307.893 187.39 303.929Z" fill="#EDB98A"/>
<path fill-rule="evenodd" clip-rule="evenodd" d="M346.421 310.669H173.148L113.173 360.261L86.5529 568.704L124.416 579.663L358.364 583.297L431.428 564.097L435.987 419.003L346.421 310.669Z" fill="#FFE68F"/>
<path fill-rule="evenodd" clip-rule="evenodd" d="M110.916 530.838C112.123 530.278 113.382 529.637 114.76 529.593C117.127 529.516 117.131 526.092 114.76 526.169C112.693 526.237 110.877 527.038 109.057 527.882C106.934 528.867 108.802 531.819 110.916 530.838ZM114.76 434.478C113.145 434.48 111.516 434.669 110.275 435.719C109.538 436.344 109.596 437.508 110.275 438.14C111.002 438.815 112.145 438.762 112.88 438.14C112.64 438.342 112.878 438.142 112.965 438.097C112.986 438.086 112.997 438.079 113.003 438.074C113.021 438.07 113.04 438.067 113.07 438.06C113.262 438.015 113.452 437.971 113.647 437.938C113.65 437.947 114.058 437.913 114.154 437.909C114.356 437.902 114.558 437.902 114.76 437.902C115.759 437.901 116.602 437.119 116.602 436.19C116.602 435.266 115.755 434.478 114.76 434.478ZM132.078 472.878C132.605 475.028 136.155 474.113 135.629 471.968C134.864 468.85 135.003 465.655 135.629 462.525C136.06 460.369 132.51 459.452 132.078 461.616C131.327 465.369 131.159 469.136 132.078 472.878ZM136.729 349.847C139.472 349.241 142.185 349.17 144.991 349.169C147.365 349.168 147.361 345.745 144.991 345.745C141.862 345.746 138.807 345.871 135.75 346.546C133.442 347.056 134.425 350.355 136.729 349.847ZM145.92 433.231C147.511 432.492 149.103 431.752 150.693 431.013C152.817 430.027 150.949 427.075 148.835 428.057L144.061 430.276C141.939 431.262 143.806 434.214 145.92 433.231ZM146.583 500.646C148.601 503.35 151.438 505.03 154.843 505.869C157.141 506.435 158.112 503.132 155.822 502.568C153.387 501.968 151.224 500.876 149.763 498.918C148.42 497.118 145.229 498.832 146.583 500.646ZM159.309 380.117C159.855 379.168 160.677 378.768 161.698 378.746C164.068 378.696 164.068 375.273 161.698 375.323C159.373 375.372 157.241 376.457 156.13 378.389C155.011 380.333 158.192 382.061 159.309 380.117ZM182.67 403.386C183.331 404.054 184.611 404.038 185.275 403.386C185.681 402.987 186.023 402.542 186.292 402.054C186.394 401.868 186.49 401.68 186.603 401.499C186.653 401.419 186.708 401.34 186.766 401.263C186.785 401.247 186.825 401.208 186.866 401.168C187.574 400.472 187.556 399.446 186.866 398.747C186.206 398.079 184.925 398.095 184.262 398.747C183.855 399.146 183.513 399.591 183.245 400.08C183.143 400.265 183.047 400.454 182.934 400.634C182.884 400.714 182.828 400.793 182.771 400.87C182.751 400.886 182.712 400.925 182.67 400.965C181.962 401.661 181.98 402.687 182.67 403.386ZM184.634 453.936C187.033 454.956 189.664 454.956 192.062 453.936C192.971 453.549 193.186 452.33 192.723 451.594C192.186 450.74 191.107 450.595 190.203 450.98C189.115 451.442 187.58 451.442 186.493 450.98C185.585 450.594 184.517 450.731 183.974 451.594C183.507 452.335 183.73 453.551 184.634 453.936ZM191.177 489.716C191.589 490.623 192.479 491.105 193.519 491.142C194.55 491.178 195.318 490.328 195.361 489.43C195.389 488.85 195.051 488.354 194.566 488.046C194.566 488.015 194.565 487.983 194.565 487.951C194.565 486.992 193.722 486.281 192.723 486.239C191.729 486.198 190.881 487.056 190.882 487.951C190.882 488.555 190.922 489.155 191.177 489.716ZM200.679 546.6C203.619 546.644 206.49 547.295 209.43 547.339C211.805 547.375 211.798 543.952 209.43 543.916C206.491 543.871 203.619 543.221 200.679 543.177C198.304 543.141 198.312 546.564 200.679 546.6ZM212.902 327.223C214.622 328.747 216.747 329.497 218.843 330.449C220.966 331.413 222.831 328.46 220.702 327.493C218.927 326.687 216.961 326.091 215.506 324.803C213.788 323.283 211.181 325.701 212.902 327.223ZM217.52 366.682C218.727 366.122 219.985 365.481 221.363 365.436C223.731 365.359 223.734 361.936 221.363 362.013C219.296 362.08 217.48 362.881 215.661 363.726C213.537 364.711 215.405 367.663 217.52 366.682ZM239.66 525.048C240.206 524.099 241.027 523.699 242.048 523.677C244.418 523.627 244.419 520.204 242.048 520.254C239.723 520.303 237.59 521.388 236.48 523.32C235.362 525.264 238.542 526.991 239.66 525.048ZM247.328 450.71C248.061 450.085 248.01 448.924 247.328 448.29C246.532 447.55 245.737 446.811 244.941 446.071C244.213 445.395 243.072 445.444 242.337 446.071C241.604 446.697 241.655 447.858 242.337 448.492C243.133 449.232 243.928 449.971 244.723 450.71C245.452 451.387 246.592 451.337 247.328 450.71ZM256.368 566.565C259.025 566.507 261.515 565.799 264.017 565.025C266.259 564.332 265.292 561.026 263.038 561.724C260.864 562.396 258.679 563.091 256.368 563.142C253.997 563.192 253.996 566.616 256.368 566.565ZM268.301 493.36C270.702 493.298 272.693 492.162 274.376 490.64C276.079 489.101 273.472 486.683 271.772 488.22C270.808 489.09 269.697 489.901 268.301 489.937C265.931 489.998 265.93 493.421 268.301 493.36ZM260.891 399.218C260.862 400.129 260.447 401.106 259.839 401.705C258.211 403.307 260.812 405.731 262.443 404.126C263.788 402.802 264.517 401.03 264.574 399.218C264.642 397.01 260.958 397.02 260.891 399.218ZM288.984 324.659C289.755 323.256 290.765 321.611 292.301 320.836C294.388 319.784 292.526 316.829 290.442 317.88C288.354 318.934 286.859 321.01 285.804 322.931C284.726 324.891 287.906 326.621 288.984 324.659ZM293.758 360.26C294.613 360.238 295.461 360.102 296.285 359.894C296.637 359.805 296.985 359.703 297.338 359.614C297.489 359.576 298.13 359.501 297.736 359.521C298.733 359.471 299.578 358.777 299.578 357.809C299.578 356.92 298.73 356.048 297.736 356.098C296.369 356.166 295.126 356.801 293.758 356.837C291.39 356.899 291.388 360.322 293.758 360.26ZM305.691 414.979H309.669C312.043 414.979 312.039 411.555 309.669 411.555H305.691C303.318 411.555 303.322 414.979 305.691 414.979ZM310.331 566.331C311.537 566.892 312.959 567.423 313.936 568.282C315.659 569.796 318.266 567.378 316.54 565.861C315.296 564.768 313.705 564.08 312.19 563.375C311.297 562.96 310.2 563.148 309.67 563.989C309.192 564.75 309.442 565.917 310.331 566.331ZM319.219 523.077C319.373 523.037 319.536 523.009 319.692 522.989C320.318 522.911 320.974 522.938 321.602 522.938C323.976 522.936 323.972 519.513 321.602 519.514C319.735 519.515 317.791 519.54 316.322 520.755C315.577 521.372 315.649 522.55 316.322 523.176C317.054 523.856 318.185 523.791 318.927 523.176C318.848 523.241 319.117 523.103 319.219 523.077ZM321.602 464.904C321.067 463.878 321.058 463.21 321.057 462.071C321.055 459.864 317.372 459.868 317.374 462.071C317.375 463.725 317.64 465.134 318.421 466.632C318.857 467.467 320.133 467.685 320.94 467.246C321.846 466.754 322.035 465.735 321.602 464.904ZM332.251 384.601C334.387 385.276 336.294 386.232 338.175 387.386C340.161 388.604 342.004 385.638 340.034 384.43C337.887 383.113 335.667 382.07 333.23 381.299C330.977 380.587 330.019 383.895 332.251 384.601ZM344.673 326.985C346.26 327.026 347.898 327.592 349.313 328.231C351.438 329.19 353.303 326.237 351.171 325.275C349.151 324.362 346.941 323.621 344.673 323.562C342.298 323.5 342.308 326.924 344.673 326.985ZM350.242 480.789C350.866 480.815 351.4 480.502 351.731 480.051C351.765 480.051 351.799 480.05 351.833 480.05C352.865 480.049 353.63 479.266 353.675 478.338C353.719 477.414 352.796 476.626 351.833 476.627C351.183 476.627 350.538 476.664 349.934 476.901C348.959 477.283 348.44 478.111 348.401 479.078C348.362 480.036 349.276 480.749 350.242 480.789ZM359.299 362.418C361.561 363.104 362.522 359.798 360.279 359.117C357.646 358.317 354.955 357.698 352.323 356.898C350.061 356.211 349.1 359.518 351.344 360.199C353.976 360.999 356.667 361.618 359.299 362.418ZM367.559 427.032C368.261 429.134 371.815 428.231 371.111 426.122C370.432 424.086 370.383 422.037 370.381 419.922C370.38 417.716 366.697 417.72 366.698 419.922C366.7 422.33 366.787 424.715 367.559 427.032ZM392.184 504.424C392.318 505.277 393.045 505.891 393.997 505.931C394.967 505.971 395.874 505.114 395.839 504.219C395.771 502.496 394.26 501.091 392.406 501.028C391.375 500.993 390.608 501.84 390.565 502.74C390.522 503.614 391.308 504.297 392.184 504.424ZM404.646 406.045C406.592 406.649 408.671 407.223 410.197 408.562C411.921 410.074 414.529 407.657 412.801 406.141C410.79 404.376 408.202 403.543 405.624 402.743C403.368 402.043 402.409 405.351 404.646 406.045ZM413.092 472.547C413.626 473.397 414.71 473.551 415.611 473.161C416.819 472.639 418.153 472.657 419.455 472.655C421.828 472.654 421.825 469.23 419.455 469.232C417.446 469.234 415.592 469.41 413.752 470.205C412.846 470.597 412.626 471.807 413.092 472.547ZM417.864 553.255C418.895 553.29 419.662 552.442 419.705 551.543C419.748 550.669 418.963 549.987 418.086 549.859C417.952 549.007 417.224 548.392 416.273 548.353C415.303 548.312 414.396 549.168 414.431 550.064C414.499 551.788 416.009 553.192 417.864 553.255ZM82.3217 566.199C82.9474 564.106 84.3792 562.416 85.4611 560.533C85.8239 559.898 85.95 559.504 86.1466 559.039C86.4136 559.536 86.932 559.909 87.7114 559.91C89.2068 559.91 90.9558 559.821 92.3512 560.416C93.2586 560.802 94.3277 560.665 94.8705 559.802C95.3368 559.06 95.114 557.845 94.2098 557.46C92.1533 556.584 89.9425 556.487 87.7114 556.486C87.1603 556.486 86.7433 556.675 86.4486 556.958C85.596 546.106 85.6171 535.246 86.4237 524.387C87.2842 512.781 89.2643 501.407 91.3361 489.952C92.3392 484.398 93.6421 478.788 93.3889 473.13C93.1357 467.512 90.5438 462.274 92.3807 456.638C93.1173 454.379 94.3788 452.308 95.1983 450.074C96.0776 447.669 95.9993 445.294 95.5988 442.804C94.7747 437.733 93.4078 432.722 95.5946 427.771C96.561 425.576 98.1268 423.616 98.8813 421.348C99.8206 418.528 99.6916 415.408 99.8482 412.486C100.166 406.589 100.249 400.654 100.774 394.77C101.008 392.134 101.519 389.635 102.684 387.217C103.803 384.889 105.465 382.771 106.206 380.302C106.943 377.871 107.007 375.308 107.403 372.822C107.817 370.195 108.467 367.606 109.341 365.081C112.721 355.307 118.913 346.526 126.228 338.914C134.004 330.822 143.299 324.728 153.166 319.05C158.354 316.064 163.541 313.078 168.726 310.092C168.836 310.652 169.221 311.166 169.959 311.396C171.906 312 173.984 312.574 175.51 313.913C177.234 315.426 179.842 313.008 178.115 311.493C176.313 309.911 174.048 309.079 171.744 308.348C174.106 306.964 176.493 305.531 179.159 304.731C181.494 304.03 184.937 304.642 186.83 303.05C188.316 301.796 188.786 299.472 189.357 297.769C190.07 295.655 190.687 293.426 191.594 291.372C192.211 289.968 193.109 288.62 194.241 287.533C194.739 285.753 195.651 284.127 197.262 283.139C201.479 280.545 206.658 283.122 208.513 286.819C210.046 286.814 211.662 287.127 213.154 287.212C216.22 287.392 219.291 287.473 222.362 287.465C228.37 287.448 234.383 287.084 240.34 286.344C250.993 285.017 261.329 282.343 271.803 280.259C271.863 280.13 271.932 280.002 272.015 279.874C274.27 276.356 279.892 276.951 283.433 278.282C284.951 278.851 286.498 279.57 287.368 280.905C288.289 281.483 289.086 282.184 289.615 282.925C290.711 284.452 291.558 287.533 293.782 287.79C295.246 287.957 296.733 287.696 298.22 287.893C300.08 288.132 301.746 288.74 303.464 289.433C316.539 294.71 330.056 300.576 344.245 302.622C347.573 303.101 350.962 303.597 353.853 305.331C356.201 306.738 358.015 308.673 359.953 310.508C361.841 312.297 363.397 313.089 366.09 313.41C369.359 313.799 372.19 314.638 374.58 316.846C376.564 318.682 377.858 321.027 379.414 323.158C380.998 325.331 383.322 326.555 385.735 327.818C391.439 330.805 396.752 334.412 401.379 338.738C411.125 347.861 417.027 359.586 422.976 371.012C429.407 383.37 435.42 395.878 439.591 409.075C443.679 422.033 446.11 435.362 447.233 448.816C448.417 462.933 448.582 477.106 449.568 491.231C450.06 498.288 450.433 505.353 450.811 512.413C451.179 519.389 451.718 526.376 451.631 533.36C451.464 546.861 448.56 560.405 443.481 573.045C442.215 576.191 440.811 579.293 439.315 582.348C438.003 585.031 433.514 584.732 432.105 582.348C431.783 581.801 431.53 581.236 431.318 580.662C427.635 580.692 423.915 580.427 420.255 580.744C413.791 581.304 407.314 581.617 400.831 581.989C388.005 582.729 375.155 583.221 362.324 583.902C361.079 583.967 359.834 584.034 358.59 584.103C367.734 557.797 366.548 529.358 367.995 502C368.111 499.795 364.427 499.808 364.312 502C362.859 529.475 364.096 557.987 354.629 584.336C350.956 584.567 347.288 584.849 343.632 585.262C340.677 585.592 337.707 585.981 334.724 585.844C331.34 585.695 328.035 584.976 324.734 584.351C318.735 583.217 312.957 583.73 306.935 584.428C300.494 585.177 294.03 585.592 287.548 585.853C261.591 586.91 235.46 587.873 209.512 586.259C203.233 585.87 196.967 585.322 190.729 584.578C184.302 583.812 177.944 582.524 171.522 581.792C165.191 581.073 159.372 583.046 153.115 583.409C146.734 583.782 140.183 582.545 133.862 581.835C131.799 581.602 129.735 581.376 127.67 581.152C130.329 564.217 131.84 547.155 133.308 530.099C133.497 527.899 129.813 527.918 129.625 530.099C128.169 547.022 126.691 563.957 124.037 580.759C113.091 579.575 102.135 578.377 91.3034 576.533C88.2188 576.011 85.1526 575.159 83.3065 572.6C81.9396 570.705 81.6629 568.381 82.3217 566.199Z" fill="black"/>
<path fill-rule="evenodd" clip-rule="evenodd" d="M165.429 207.114C166.418 199.02 165.139 182.102 165.053 181.074C164.511 174.576 167.779 148.917 173.958 151.281C184.324 143.638 198.13 141.95 211.039 141.144C237.854 139.469 266.381 143.314 287.086 160.123C297.326 168.852 307.295 181.548 306.494 194.767C315.798 207.297 328.914 224.485 317.322 239.134C313.381 243.815 307.119 245.557 302.169 249.102C292.213 256.582 285.966 267.317 275.916 274.752C249.288 297.04 204.073 301.695 177.911 276.345C157.681 257.986 160.952 230.52 164.511 207.114C166.903 191.378 163.5 222.905 165.429 207.114Z" fill="#EDB98A"/>
<path fill-rule="evenodd" clip-rule="evenodd" d="M246.86 106.819C239.689 105.471 232.325 104.633 225.001 104.885L224.437 104.906C218.926 105.111 211.948 105.564 207.141 108.549C206.865 108.291 206.42 108.158 206.017 108.337C200.304 110.877 194.021 112.713 188.007 114.538C182.019 116.353 175.808 117.552 169.533 118.035C167.172 118.217 165.151 120.591 166.646 122.721C167.002 123.229 167.348 123.741 167.693 124.255C167.116 124.199 166.539 124.142 165.962 124.087C164.064 123.909 162.167 125.797 162.279 127.519C162.349 128.602 162.475 129.672 162.661 130.729C161.937 130.715 161.218 130.816 160.524 131.09C157.006 132.473 157.251 136.375 157.515 139.344C157.879 143.464 159.534 147.828 162.605 150.912C160.312 153.13 158.688 155.78 157.72 158.927C157.018 161.225 156.627 163.673 156.82 166.065L156.881 166.781C157.12 169.377 157.594 172.251 159.599 174.118C160.628 175.081 161.896 175.432 163.105 175.321C162.374 181.303 161.905 187.319 161.464 193.315L161.257 196.18C160.274 210.036 159.534 223.982 159.728 237.861C159.907 250.831 162.659 263.421 171.199 273.952C178.978 283.541 190.146 290.611 202.779 293.298C209.588 294.749 216.539 294.851 223.43 293.927C226.771 293.478 230.133 292.789 233.304 291.702C236.813 290.495 239.335 288.719 241.697 286.058C242.813 284.795 242.276 282.108 240.052 282.36C236.688 282.74 233.618 283.198 230.393 284.125L229.931 284.26C226.72 285.219 223.393 285.933 220.036 286.237C213.158 286.858 206.175 286.233 199.587 284.29C188.859 281.124 179.62 274.067 173.698 265.201C166.669 254.691 165.875 242.761 165.976 230.676C166.085 217.416 166.548 204.147 167.304 190.901L167.432 188.693C167.832 181.876 168.218 175.055 168.558 168.234C168.663 166.095 168.824 163.938 169.114 161.803C171.764 160.356 174.139 158.362 175.688 155.902C178.798 157.1 182.069 157.964 185.079 158.653C192.05 160.25 199.287 160.638 206.383 159.638C208.297 160.374 210.249 161.022 212.231 161.579C212.767 161.8 213.302 162.017 213.838 162.231C218.616 164.135 223.463 165.748 228.507 166.929L229.746 167.217C232.4 167.826 235.284 168.427 238.109 168.615C238.573 168.782 239.073 168.923 239.621 169.047C242.193 169.629 244.862 169.813 247.499 169.608C250.068 169.407 251.924 166.989 250.509 164.725C249.475 163.074 248.432 161.426 247.38 159.783C251.041 161.204 254.822 162.385 258.635 163.386C262.485 164.396 266.39 165.247 270.3 166.031C272.391 166.446 274.49 166.814 276.575 167.229C278.069 167.524 280.361 167.678 281.579 168.594C282.925 169.599 283.306 171.944 283.816 173.391C284.487 175.269 285.116 177.156 285.691 179.065C286.834 182.873 287.771 186.738 288.497 190.64C289.223 194.547 289.711 198.492 289.982 202.451C290.252 206.405 290.133 210.384 290.569 214.321C290.804 216.409 293.211 217.483 294.989 216.024C295.197 215.853 295.408 215.68 295.616 215.505L295.926 215.241C297.447 213.957 298.922 212.597 300.139 211.065C300.359 210.782 300.571 210.487 300.768 210.187C300.8 210.187 300.828 210.179 300.86 210.158L301.198 209.921C304.913 207.345 311.121 203.987 314.744 208.266C315.898 209.629 316.489 211.365 316.98 213.04L317.841 216.037C318.398 217.994 318.922 219.962 319.228 221.964C319.922 226.448 319.573 231.618 316.26 235.212C314.937 236.65 313.113 237.677 311.078 237.947C309.943 238.092 308.822 237.912 307.696 237.78C306.552 237.647 305.45 237.861 304.306 237.758C302.487 237.591 301.692 239.62 302.372 240.895C302.739 241.58 303.172 242.17 303.663 242.671C303.268 242.987 302.891 243.33 302.528 243.689C301.453 244.01 300.489 244.699 299.767 245.611C299.183 246.347 298.881 247.147 298.83 247.99C298.766 248.2 298.711 248.413 298.66 248.632L297.674 250.122C297.457 250.449 297.241 250.771 297.025 251.088C294.516 254.768 291.732 257.883 288.272 260.819C284.941 263.643 281.326 266.172 278.197 269.202L277.829 269.562C274.911 272.425 271.837 275.891 272.978 280.054C273.272 281.124 274.876 281.894 275.923 281.171C279.291 278.843 280.986 275.154 283.843 272.33C286.784 269.42 290.041 266.805 292.99 263.904C295.78 261.165 297.98 258.063 299.638 254.648C300.3 255.329 301.265 255.812 302.601 256.001C304.898 256.321 307.04 255.068 308.041 253.215C308.685 253.48 309.341 253.72 310.003 253.908C313.485 254.901 315.676 251.293 314.362 248.627C313.66 247.198 312.783 245.957 311.693 244.913C315.098 244.477 318.562 242.838 320.799 240.792C326.413 235.653 327.185 227.929 325.921 221.061C325.251 217.419 324.093 213.735 322.591 210.316C322.329 209.721 322.048 209.122 321.741 208.531C321.911 208.527 322.086 208.459 322.196 208.326C323.211 207.034 324.447 205.977 325.201 204.53C325.894 203.204 326.666 201.86 327.213 200.478C328.338 197.649 328.889 194.457 329.257 191.466C330.015 185.342 329.721 179.257 328.715 173.172C327.001 162.808 322.863 152.89 316.766 144.187C317.098 144.024 317.416 143.828 317.713 143.596L317.859 143.477L318.097 143.277C319.837 141.811 319.687 139.062 318.097 137.577L317.595 137.108C316.959 136.52 316.411 136.054 315.384 135.413C315.233 135.319 315.078 135.23 314.921 135.147C315.459 134.222 315.645 133.14 315.271 131.946C313.966 127.789 307.543 127.936 303.472 129.749C298.969 126.005 293.975 122.755 288.562 120.123C275.67 113.859 261.094 109.49 246.86 106.819ZM313.499 216.324C311.091 215.592 307.894 217.128 305.73 218.053C302.987 219.225 300.653 220.958 298.393 222.79C297.267 223.705 297.066 225.203 297.346 226.483C297.374 226.611 297.401 226.744 297.433 226.876C297.732 228.241 299.367 229.315 300.815 229.277C303.842 229.2 305.284 226.765 306.998 224.703C307.2 225.036 307.453 225.344 307.766 225.575L307.977 225.729C308.688 226.234 309.472 226.637 310.412 226.598C311.078 226.568 311.716 226.41 312.305 226.123C313.775 225.4 314.422 223.628 314.023 222.186C313.775 221.279 313.205 220.569 312.461 220.077L312.738 219.9C313.332 219.515 313.873 219.11 314.295 218.511L314.39 218.369H314.354C314.813 217.633 314.514 216.632 313.499 216.324Z" fill="black"/>
<path fill-rule="evenodd" clip-rule="evenodd" d="M211.048 259.715C214.143 258.542 216.904 256.584 218.923 254.084C219.625 253.215 219.807 252.297 219.659 251.457C219.494 250.513 218.893 249.657 218.073 249.083C217.251 248.508 216.223 248.224 215.229 248.369C214.365 248.494 213.505 248.934 212.825 249.846L212.683 250.028C211.482 251.537 209.918 252.776 208.136 253.574C206.419 254.343 204.498 254.702 202.51 254.493C198.724 254.096 196.114 252.193 193.34 249.608C192.996 249.282 192.652 248.945 192.307 248.603C192.088 248.293 191.785 248.094 191.449 247.99C191.076 247.874 190.653 247.88 190.266 248.006C189.893 248.127 189.559 248.356 189.335 248.661C189.123 248.952 189.002 249.31 189.041 249.723C189.295 252.401 190.802 254.791 192.942 256.668C195.319 258.753 198.469 260.195 201.435 260.701C204.703 261.258 208.033 260.859 211.048 259.715ZM199.894 218.396C196.417 220.36 191.12 224.94 194.86 229.809C199.262 234.103 205.6 229.18 208.724 226.954C211.62 225.228 214.874 229.666 212.187 231.681C189.617 247.212 180.458 218.909 198.135 216.086C200.082 215.775 200.804 217.788 199.894 218.396ZM240.339 200.329C239.955 195.897 232.693 194.891 231.971 199.276C231.324 203.204 232.086 206.813 233.989 210.35C235.808 213.729 240.38 212.152 240.726 209.076C241.19 204.951 240.578 203.086 240.339 200.329ZM185.063 198.367C184.051 197.134 182.589 196.293 180.838 196.769C175.366 198.255 176.979 205.475 178.901 208.989C179.945 210.898 183.32 211.382 184.845 209.702C187.331 206.961 188.522 201.488 185.361 198.789C185.276 198.65 185.18 198.509 185.063 198.367ZM234.066 180.937L233.202 180.797C230.528 180.367 227.204 179.954 225.312 181.952C224.309 183.011 223.964 184.981 225.312 185.995C227.684 187.779 230.307 187.088 233.149 187.239C235.491 187.364 237.743 187.724 239.999 188.324C244.949 189.639 248.983 192.039 253.21 194.675C253.765 195.021 254.331 194.361 254.067 193.879C251.626 189.436 246.897 185.786 242.159 183.562C239.631 182.374 236.864 181.389 234.066 180.937ZM190.051 178.947L189.39 179.073C182.19 180.471 172.837 183.266 169.428 189.838C169.298 190.768 169.435 190.967 169.547 191.097L169.584 191.14C169.676 191.251 169.749 191.404 170.183 191.531C170.303 191.504 170.424 191.476 170.547 191.446C172.11 191.066 173.346 190.541 174.543 189.997L175.841 189.403C177.347 188.717 178.866 188.055 180.476 187.567C183.911 186.526 187.445 185.792 191.033 185.4C191.811 185.315 192.56 185.071 193.151 184.653C193.712 184.256 194.14 183.707 194.335 182.976C194.589 182.031 194.516 181.315 193.97 180.463C193.56 179.822 192.973 179.378 192.299 179.123C191.611 178.863 190.829 178.802 190.051 178.947Z" fill="black"/>
<path fill-rule="evenodd" clip-rule="evenodd" d="M240.909 262.397C237.182 254.28 229.047 248.315 219.68 246.134C212.802 244.537 205.583 244.588 198.572 245.222C194.898 245.552 190.958 245.822 187.496 247.09C184.539 248.173 182.13 250.221 180.319 252.625C178.162 255.473 176.696 258.733 175.666 262.074C175.519 262.549 175.382 263.028 175.254 263.509C175.702 266.03 176.652 268.176 179.165 269.761C181.616 271.308 184.541 271.942 187.457 272.166C187.743 272.039 188.019 271.908 188.273 271.773C192.817 269.355 196.015 263.642 201.75 264.415C206.868 265.105 210.238 271.091 213.281 274.601C223.052 275.659 232.814 272.931 240.764 267.738C241.168 265.961 241.191 264.168 240.909 262.397ZM168.613 256.24C169.395 254.201 170.379 252.227 171.546 250.367C175.404 244.216 181.326 239.315 188.355 236.513C204.986 229.895 226.503 234.56 239.933 245.415C244.521 249.125 249.16 254.578 250.562 260.443C250.981 260.521 251.377 260.723 251.702 261.008C261.405 255.33 271.398 249.867 279.216 241.996C284.895 236.277 288.844 229.51 291.263 222.072C291.46 221.46 292.522 221.55 292.49 222.227C292.481 222.386 292.472 222.544 292.463 222.702C292.564 222.411 293.042 222.561 293.079 222.844C294.38 231.878 296.008 241.457 294.509 250.538C293.612 255.957 290.964 259.924 287.423 264.208C283.63 268.8 279.336 273.071 274.945 277.166C272.159 279.766 269.249 282.765 265.837 284.671C261.869 286.886 257.368 288.57 253.133 290.279C248.825 292.022 244.453 293.633 239.998 295.029C231.092 297.831 221.887 299.767 212.521 300.615C205.022 301.292 196.452 302.029 189.266 299.407C183.758 297.398 179.312 293.766 175.785 289.396C171.946 284.637 168.911 279.216 167.233 273.499C165.49 267.561 168.246 257.197 168.613 256.24Z" fill="black"/>
<path fill-rule="evenodd" clip-rule="evenodd" d="M161.074 222.226C164.174 226.097 169.92 227.33 175.221 226.904C186.653 225.881 190.251 213.813 190.625 204.434C182.96 206.438 191.274 192.242 165.069 190.681C155.831 189.966 158.378 195.151 154.297 198.94C154.38 206.892 155.804 215.532 161.074 222.226ZM215.525 213.089C222.274 242.467 259.233 235.479 263.115 208.997C259.53 206.645 260.474 200.838 256.021 198.734C248.962 194.542 240.138 194.721 232.122 194.82C221.877 195.474 218.957 199.419 213.694 203.723C213.947 206.598 214.677 210.005 215.525 213.089ZM146.433 185.816C146.812 185.757 147.192 185.702 147.571 185.65C147.867 185.494 148.214 185.374 148.619 185.302C149.542 185.084 150.458 184.937 151.374 184.858C164.509 182.11 194.898 186.011 196.152 196.43C200.335 197.728 203.955 196.566 208.803 196.682C212.494 182.344 276.296 184.368 279.364 193.012C279.376 193.009 279.387 193.006 279.399 193.003C282.347 192.155 286.694 192.359 290.069 192.225C297.274 192.084 304.488 192.681 311.538 194.094C324.739 196.044 342.757 198.327 333.575 213.65C333.573 213.652 333.572 213.655 333.57 213.658L333.568 213.657C331.986 215.164 329.301 213.95 329.201 211.91C332.288 204.65 325.315 203.779 319.951 201.693C306.603 197.235 293.013 196.617 279.208 197.996C278.169 199.133 276.594 200.124 274.928 200.642C265.698 202.067 270.562 208.431 264.728 209.356C265.799 231.54 236.822 243.65 220.032 229.067C213.328 222.975 211.73 213.95 210.176 205.816C209.354 205.644 208.832 205.227 208.527 204.674C206.55 202.84 205.309 201.146 201.4 200.642C197.492 200.139 194.483 201.149 194.076 201.459C193.974 201.651 193.864 201.844 193.736 202.036C193.557 202.323 193.314 202.552 193.038 202.732C196.897 224.823 178.446 238.794 159.819 227.336C151.726 220.26 150.016 209.426 149.678 199.756C148.581 199.14 147.886 197.948 148.266 196.448C148.789 194.382 147.562 192.592 145.607 191.693C143.067 190.526 143.516 186.265 146.433 185.816Z" fill="black"/>
</svg>
