<svg xmlns="http://www.w3.org/2000/svg" xmlns:xlink="http://www.w3.org/1999/xlink" version="1.1" width="1000" height="1000" viewBox="0 0 1000 1000" xml:space="preserve">
<desc>Created with Fabric.js 3.5.0</desc>
<defs>
</defs>
<rect x="0" y="0" width="100%" height="100%" fill="#ffffff"/>
<g transform="matrix(1 0 0 1 -285.2883 436.3817)" id="247495">
<g style="" vector-effect="non-scaling-stroke">
		<g transform="matrix(1 0 0 1 -15.2802 -26.1194)">
<path style="stroke: none; stroke-width: 1; stroke-dasharray: none; stroke-linecap: butt; stroke-dashoffset: 0; stroke-linejoin: miter; stroke-miterlimit: 4; is-custom-font: none; font-file-url: none; fill: rgb(237,185,138); fill-rule: evenodd; opacity: 1;" transform=" translate(-158.7197, -177.8806)" d="M 124.688 189.029 C 130.362 185.441 133.176 179.567 135.293 178.567 C 136.85 177.831 136.822 172.755 139.944 170.958 C 144.134 168.547 157.485 166.754 162.342 166.419 C 167.004 166.097 175.113 166.773 179.487 168.256 C 186.782 170.73 189.692 175.448 192.904 181.526 C 192.904 181.526 120.79 191.494 124.688 189.029 Z" stroke-linecap="round"/>
</g>
		<g transform="matrix(1 0 0 1 3.5331 64.7944)">
<path style="stroke: none; stroke-width: 1; stroke-dasharray: none; stroke-linecap: butt; stroke-dashoffset: 0; stroke-linejoin: miter; stroke-miterlimit: 4; is-custom-font: none; font-file-url: none; fill: rgb(0,0,0); fill-rule: evenodd; opacity: 1;" transform=" translate(-177.5331, -268.7945)" d="M 73.8028 330.155 C 74.606 329.807 75.4433 329.409 76.3604 329.381 C 77.9356 329.333 77.9378 327.204 76.3604 327.252 C 74.9847 327.293 73.7765 327.792 72.5658 328.317 C 71.1533 328.929 72.3958 330.765 73.8028 330.155 M 76.3604 270.224 C 75.2855 270.225 74.202 270.343 73.3764 270.996 C 72.8856 271.385 72.9245 272.109 73.3764 272.502 C 73.8601 272.921 74.6204 272.889 75.1096 272.502 C 74.95 272.628 75.1081 272.503 75.166 272.475 C 75.1798 272.468 75.1875 272.464 75.1911 272.461 C 75.2034 272.458 75.2156 272.456 75.2356 272.452 C 75.3636 272.424 75.4901 272.396 75.6197 272.376 C 75.6218 272.381 75.8933 272.36 75.957 272.358 C 76.0918 272.354 76.226 272.353 76.3604 272.353 C 77.0252 272.353 77.5858 271.867 77.5858 271.289 C 77.5858 270.714 77.0227 270.224 76.3604 270.224 M 87.8833 294.107 C 88.2344 295.444 90.5966 294.875 90.2464 293.541 C 89.7373 291.602 89.8301 289.615 90.2464 287.668 C 90.5332 286.327 88.171 285.757 87.8833 287.102 C 87.384 289.437 87.2722 291.78 87.8833 294.107 M 90.9786 217.588 C 92.8038 217.211 94.609 217.166 96.4758 217.166 C 98.0553 217.165 98.0529 215.036 96.4758 215.037 C 94.3937 215.037 92.3611 215.115 90.327 215.535 C 88.791 215.852 89.4454 217.904 90.9786 217.588 M 97.0943 269.449 C 98.1527 268.989 99.2117 268.529 100.27 268.069 C 101.683 267.456 100.44 265.62 99.0334 266.231 L 95.8573 267.61 C 94.4451 268.224 95.6876 270.06 97.0943 269.449 M 97.5351 311.377 C 98.8778 313.059 100.766 314.104 103.031 314.626 C 104.56 314.978 105.206 312.924 103.683 312.573 C 102.063 312.2 100.623 311.52 99.6513 310.303 C 98.7577 309.183 96.6342 310.249 97.5351 311.377 M 106.003 236.414 C 106.367 235.824 106.913 235.575 107.592 235.562 C 109.169 235.53 109.17 233.401 107.592 233.433 C 106.045 233.463 104.627 234.138 103.887 235.34 C 103.143 236.549 105.26 237.623 106.003 236.414 M 121.547 250.886 C 121.987 251.302 122.839 251.292 123.28 250.886 C 123.551 250.638 123.778 250.361 123.957 250.058 C 124.025 249.942 124.089 249.825 124.164 249.713 C 124.197 249.663 124.234 249.614 124.272 249.566 C 124.285 249.556 124.312 249.532 124.339 249.507 C 124.81 249.074 124.798 248.436 124.339 248.001 C 123.9 247.585 123.048 247.596 122.606 248.001 C 122.336 248.249 122.108 248.526 121.93 248.83 C 121.862 248.945 121.798 249.063 121.723 249.175 C 121.689 249.225 121.652 249.274 121.614 249.322 C 121.601 249.332 121.575 249.356 121.547 249.381 C 121.076 249.813 121.088 250.452 121.547 250.886 M 122.854 282.326 C 124.45 282.96 126.201 282.96 127.797 282.326 C 128.401 282.086 128.545 281.327 128.236 280.869 C 127.879 280.339 127.161 280.248 126.56 280.487 C 125.836 280.775 124.814 280.775 124.091 280.487 C 123.487 280.247 122.776 280.332 122.415 280.869 C 122.104 281.33 122.252 282.087 122.854 282.326 M 127.208 304.58 C 127.482 305.144 128.074 305.443 128.766 305.466 C 129.452 305.489 129.963 304.96 129.992 304.402 C 130.01 304.041 129.785 303.732 129.463 303.541 C 129.463 303.521 129.462 303.502 129.462 303.482 C 129.462 302.885 128.901 302.443 128.237 302.417 C 127.575 302.391 127.011 302.925 127.011 303.482 C 127.012 303.858 127.038 304.23 127.208 304.58 M 133.53 339.959 C 135.486 339.986 137.397 340.391 139.353 340.418 C 140.933 340.44 140.929 338.311 139.353 338.289 C 137.397 338.262 135.486 337.857 133.53 337.829 C 131.95 337.807 131.955 339.936 133.53 339.959 M 141.663 203.517 C 142.808 204.464 144.222 204.931 145.616 205.523 C 147.029 206.123 148.27 204.286 146.853 203.685 C 145.672 203.183 144.364 202.813 143.396 202.012 C 142.253 201.066 140.518 202.57 141.663 203.517 M 144.736 228.058 C 145.539 227.71 146.376 227.311 147.293 227.284 C 148.869 227.236 148.871 225.107 147.293 225.155 C 145.918 225.196 144.71 225.695 143.499 226.22 C 142.086 226.832 143.329 228.668 144.736 228.058 M 159.468 326.554 C 159.831 325.964 160.378 325.715 161.056 325.702 C 162.634 325.67 162.634 323.541 161.056 323.572 C 159.509 323.603 158.091 324.278 157.352 325.479 C 156.608 326.689 158.724 327.763 159.468 326.554 M 164.57 280.32 C 165.058 279.931 165.024 279.209 164.57 278.814 C 164.041 278.354 163.511 277.895 162.981 277.435 C 162.497 277.014 161.738 277.044 161.249 277.435 C 160.761 277.823 160.795 278.546 161.249 278.94 C 161.778 279.4 162.308 279.86 162.837 280.32 C 163.322 280.741 164.081 280.71 164.57 280.32 M 170.585 352.376 C 172.353 352.34 174.01 351.899 175.675 351.418 C 177.166 350.987 176.523 348.931 175.023 349.365 C 173.577 349.783 172.123 350.215 170.585 350.247 C 169.008 350.278 169.007 352.407 170.585 352.376 M 178.525 306.846 C 180.123 306.807 181.448 306.101 182.568 305.154 C 183.701 304.197 181.966 302.693 180.835 303.649 C 180.194 304.19 179.454 304.694 178.525 304.717 C 176.949 304.755 176.947 306.884 178.525 306.846 M 173.595 248.294 C 173.575 248.861 173.3 249.468 172.895 249.841 C 171.812 250.837 173.542 252.345 174.628 251.346 C 175.523 250.523 176.008 249.421 176.045 248.294 C 176.091 246.921 173.64 246.927 173.595 248.294 M 192.288 201.922 C 192.8 201.05 193.473 200.026 194.495 199.544 C 195.883 198.89 194.645 197.052 193.258 197.706 C 191.868 198.361 190.874 199.653 190.171 200.847 C 189.455 202.066 191.57 203.142 192.288 201.922 M 195.464 224.064 C 196.033 224.05 196.597 223.966 197.146 223.837 C 197.38 223.781 197.611 223.718 197.846 223.662 C 197.947 223.639 198.373 223.592 198.111 223.604 C 198.775 223.574 199.336 223.142 199.336 222.54 C 199.336 221.987 198.773 221.444 198.111 221.475 C 197.202 221.518 196.374 221.913 195.464 221.935 C 193.888 221.974 193.887 224.103 195.464 224.064 M 203.405 258.097 H 206.051 C 207.631 258.097 207.628 255.967 206.051 255.967 H 203.405 C 201.825 255.967 201.828 258.097 203.405 258.097 M 206.492 352.23 C 207.295 352.579 208.241 352.91 208.891 353.443 C 210.037 354.385 211.772 352.881 210.624 351.938 C 209.795 351.258 208.737 350.83 207.729 350.392 C 207.135 350.134 206.404 350.25 206.052 350.774 C 205.734 351.247 205.9 351.973 206.492 352.23 M 212.406 325.328 C 212.508 325.303 212.617 325.286 212.721 325.274 C 213.137 325.225 213.573 325.242 213.992 325.242 C 215.571 325.241 215.569 323.112 213.992 323.113 C 212.749 323.113 211.456 323.128 210.478 323.884 C 209.982 324.268 210.03 325.001 210.478 325.39 C 210.965 325.813 211.717 325.772 212.211 325.39 C 212.159 325.43 212.338 325.345 212.406 325.328 M 213.991 289.147 C 213.635 288.51 213.63 288.094 213.629 287.385 C 213.628 286.013 211.177 286.015 211.178 287.385 C 211.179 288.414 211.355 289.29 211.875 290.222 C 212.165 290.742 213.014 290.877 213.551 290.604 C 214.153 290.298 214.279 289.665 213.991 289.147 M 221.077 239.203 C 222.498 239.623 223.767 240.218 225.019 240.935 C 226.34 241.693 227.566 239.848 226.256 239.097 C 224.827 238.278 223.35 237.629 221.729 237.15 C 220.229 236.707 219.592 238.764 221.077 239.203 M 229.343 203.369 C 230.399 203.395 231.489 203.746 232.43 204.143 C 233.844 204.74 235.085 202.903 233.667 202.305 C 232.322 201.738 230.852 201.277 229.343 201.24 C 227.763 201.201 227.769 203.331 229.343 203.369 M 233.048 299.028 C 233.464 299.044 233.819 298.849 234.039 298.568 C 234.062 298.568 234.084 298.568 234.107 298.568 C 234.794 298.567 235.302 298.08 235.332 297.503 C 235.362 296.928 234.748 296.438 234.107 296.438 C 233.675 296.439 233.245 296.462 232.843 296.609 C 232.194 296.847 231.849 297.361 231.823 297.963 C 231.797 298.559 232.405 299.003 233.048 299.028 M 239.075 225.406 C 240.58 225.833 241.219 223.777 239.727 223.353 C 237.975 222.856 236.184 222.47 234.433 221.973 C 232.928 221.546 232.289 223.603 233.781 224.026 C 235.533 224.523 237.323 224.909 239.075 225.406 M 244.571 265.593 C 245.038 266.9 247.402 266.339 246.934 265.027 C 246.482 263.761 246.45 262.487 246.449 261.171 C 246.448 259.799 243.997 259.801 243.998 261.171 C 243.999 262.668 244.057 264.152 244.571 265.593 M 260.956 313.727 C 261.045 314.257 261.529 314.639 262.163 314.664 C 262.808 314.689 263.411 314.157 263.388 313.6 C 263.343 312.528 262.337 311.654 261.104 311.615 C 260.418 311.593 259.907 312.12 259.879 312.68 C 259.85 313.223 260.373 313.648 260.956 313.727 M 269.248 252.54 C 270.543 252.916 271.927 253.273 272.942 254.106 C 274.089 255.046 275.824 253.543 274.675 252.6 C 273.336 251.502 271.614 250.984 269.899 250.487 C 268.398 250.051 267.76 252.108 269.248 252.54 M 274.868 293.901 C 275.224 294.43 275.945 294.525 276.544 294.283 C 277.348 293.959 278.235 293.969 279.102 293.969 C 280.681 293.968 280.679 291.838 279.102 291.84 C 277.765 291.841 276.532 291.95 275.307 292.445 C 274.705 292.688 274.558 293.441 274.868 293.901 M 278.043 344.098 C 278.729 344.119 279.24 343.592 279.269 343.033 C 279.297 342.489 278.775 342.065 278.191 341.985 C 278.102 341.455 277.618 341.073 276.985 341.049 C 276.339 341.023 275.736 341.556 275.759 342.113 C 275.804 343.185 276.809 344.058 278.043 344.098 M 54.7762 352.148 C 55.1925 350.846 56.1452 349.795 56.8651 348.624 C 57.1065 348.229 57.1904 347.984 57.3212 347.695 C 57.4989 348.004 57.8438 348.236 58.3625 348.237 C 59.3574 348.237 60.5212 348.181 61.4497 348.551 C 62.0535 348.792 62.7648 348.706 63.126 348.169 C 63.4363 347.708 63.2881 346.952 62.6864 346.713 C 61.318 346.168 59.847 346.108 58.3625 346.107 C 57.9958 346.107 57.7182 346.225 57.5222 346.401 C 56.9548 339.651 56.9689 332.897 57.5056 326.143 C 58.0782 318.925 59.3957 311.851 60.7743 304.726 C 61.4418 301.272 62.3087 297.782 62.1402 294.264 C 61.9717 290.77 60.2471 287.512 61.4693 284.007 C 61.9595 282.602 62.7989 281.313 63.3441 279.924 C 63.9292 278.428 63.8772 276.951 63.6106 275.402 C 63.0623 272.249 62.1528 269.132 63.6079 266.053 C 64.2509 264.687 65.2928 263.468 65.7948 262.058 C 66.4198 260.304 66.334 258.364 66.4381 256.546 C 66.6495 252.879 66.7047 249.187 67.0542 245.528 C 67.2101 243.888 67.5501 242.334 68.3252 240.83 C 69.0699 239.382 70.1755 238.065 70.6687 236.529 C 71.1588 235.018 71.2017 233.423 71.4651 231.877 C 71.7408 230.243 72.1728 228.633 72.7548 227.063 C 75.0034 220.984 79.1236 215.522 83.9913 210.788 C 89.1654 205.755 95.3503 201.965 101.915 198.433 C 105.367 196.576 108.819 194.719 112.269 192.862 C 112.342 193.21 112.598 193.53 113.089 193.673 C 114.385 194.049 115.768 194.406 116.783 195.239 C 117.93 196.179 119.666 194.676 118.516 193.733 C 117.317 192.75 115.81 192.232 114.277 191.777 C 115.849 190.917 117.437 190.025 119.211 189.528 C 120.764 189.092 123.056 189.472 124.315 188.482 C 125.304 187.702 125.617 186.257 125.996 185.198 C 126.471 183.883 126.882 182.497 127.485 181.219 C 127.896 180.346 128.493 179.508 129.247 178.832 C 129.577 177.725 130.184 176.713 131.257 176.098 C 134.062 174.486 137.509 176.088 138.743 178.387 C 139.763 178.385 140.838 178.579 141.831 178.632 C 143.871 178.744 145.914 178.794 147.958 178.789 C 151.955 178.779 155.956 178.552 159.92 178.092 C 167.009 177.267 173.886 175.603 180.855 174.307 C 180.895 174.227 180.941 174.148 180.996 174.068 C 182.497 171.88 186.238 172.25 188.594 173.078 C 189.604 173.432 190.634 173.879 191.213 174.709 C 191.825 175.068 192.355 175.505 192.708 175.965 C 193.437 176.916 194 178.832 195.48 178.991 C 196.454 179.095 197.444 178.933 198.433 179.055 C 199.671 179.204 200.78 179.582 201.922 180.013 C 210.622 183.295 219.616 186.944 229.058 188.216 C 231.273 188.514 233.527 188.823 235.451 189.901 C 237.013 190.776 238.221 191.979 239.51 193.121 C 240.766 194.234 241.801 194.726 243.593 194.926 C 245.768 195.168 247.652 195.689 249.242 197.063 C 250.563 198.204 251.423 199.663 252.459 200.988 C 253.513 202.34 255.06 203.101 256.665 203.887 C 260.46 205.744 263.996 207.988 267.074 210.679 C 273.559 216.353 277.487 223.645 281.445 230.751 C 285.724 238.438 289.725 246.217 292.5 254.425 C 295.221 262.484 296.838 270.774 297.586 279.142 C 298.373 287.922 298.483 296.737 299.139 305.522 C 299.466 309.911 299.715 314.305 299.966 318.696 C 300.211 323.034 300.569 327.38 300.511 331.724 C 300.401 340.121 298.468 348.544 295.089 356.406 C 294.246 358.362 293.312 360.292 292.317 362.192 C 291.443 363.861 288.457 363.675 287.519 362.192 C 287.305 361.852 287.136 361.5 286.995 361.144 C 284.545 361.162 282.069 360.997 279.634 361.194 C 275.333 361.543 271.023 361.737 266.71 361.969 C 258.175 362.429 249.625 362.735 241.088 363.158 C 240.259 363.199 239.431 363.241 238.603 363.283 C 244.687 346.923 243.898 329.235 244.861 312.22 C 244.938 310.848 242.487 310.856 242.41 312.22 C 241.443 329.308 242.266 347.041 235.967 363.428 C 233.523 363.572 231.083 363.748 228.65 364.005 C 226.684 364.21 224.708 364.452 222.723 364.367 C 220.471 364.273 218.272 363.826 216.075 363.438 C 212.084 362.732 208.239 363.052 204.232 363.486 C 199.946 363.951 195.645 364.21 191.332 364.372 C 174.061 365.029 156.673 365.628 139.408 364.625 C 135.229 364.383 131.06 364.042 126.909 363.579 C 122.633 363.102 118.402 362.301 114.129 361.846 C 109.917 361.399 106.045 362.626 101.881 362.852 C 97.6359 363.084 93.2764 362.315 89.0704 361.873 C 87.6983 361.728 86.3247 361.588 84.9508 361.448 C 86.7196 350.916 87.7253 340.304 88.7022 329.696 C 88.8281 328.328 86.3765 328.339 86.2515 329.696 C 85.2825 340.221 84.2992 350.754 82.5331 361.203 C 75.25 360.467 67.9597 359.722 60.7525 358.575 C 58.7 358.251 56.6598 357.721 55.4314 356.129 C 54.5219 354.95 54.3378 353.505 54.7762 352.148" stroke-linecap="round"/>
</g>
		<g transform="matrix(1 0 0 1 -13.0666 -68.9509)">
<path style="stroke: none; stroke-width: 1; stroke-dasharray: none; stroke-linecap: butt; stroke-dashoffset: 0; stroke-linejoin: miter; stroke-miterlimit: 4; is-custom-font: none; font-file-url: none; fill: rgb(237,185,138); fill-rule: evenodd; opacity: 1;" transform=" translate(-160.9335, -135.0491)" d="M 110.075 128.815 C 110.733 123.781 109.882 113.259 109.825 112.619 C 109.464 108.578 111.639 92.6192 115.751 94.0897 C 122.648 89.3361 131.834 88.2864 140.424 87.785 C 158.266 86.7433 177.247 89.1346 191.025 99.5888 C 197.839 105.018 204.472 112.914 203.939 121.136 C 210.129 128.929 218.856 139.619 211.143 148.73 C 208.521 151.641 204.354 152.725 201.061 154.93 C 194.436 159.582 190.28 166.258 183.592 170.883 C 165.874 184.744 135.789 187.64 118.381 171.874 C 104.92 160.455 107.096 143.372 109.464 128.815 C 111.056 119.028 108.792 138.636 110.075 128.815 Z" stroke-linecap="round"/>
</g>
		<g transform="matrix(1 0 0 1 -12.1585 -79.8074)">
<path style="stroke: none; stroke-width: 1; stroke-dasharray: none; stroke-linecap: butt; stroke-dashoffset: 0; stroke-linejoin: miter; stroke-miterlimit: 4; is-custom-font: none; font-file-url: none; fill: rgb(0,0,0); fill-rule: evenodd; opacity: 1;" transform=" translate(-161.8416, -124.1926)" d="M 164.259 66.4364 C 159.487 65.598 154.587 65.0764 149.714 65.2334 L 149.339 65.2461 C 145.672 65.3737 141.029 65.6559 137.83 67.5121 C 137.646 67.3514 137.35 67.2689 137.082 67.3804 C 133.281 68.96 129.1 70.102 125.098 71.2368 C 121.114 72.3661 116.981 73.1116 112.806 73.412 C 111.235 73.5251 109.891 75.002 110.885 76.3266 C 111.122 76.6422 111.352 76.9611 111.582 77.2807 C 111.198 77.2458 110.814 77.2099 110.43 77.1761 C 109.167 77.0654 107.904 78.2394 107.979 79.3103 C 108.026 79.9839 108.11 80.6496 108.233 81.3072 C 107.752 81.2984 107.274 81.3612 106.811 81.5313 C 104.471 82.3918 104.634 84.8187 104.809 86.6652 C 105.052 89.2277 106.153 91.9418 108.196 93.8597 C 106.67 95.2396 105.59 96.8876 104.946 98.8448 C 104.478 100.274 104.218 101.796 104.347 103.284 L 104.387 103.73 C 104.546 105.344 104.862 107.131 106.196 108.293 C 106.881 108.892 107.724 109.11 108.529 109.041 C 108.042 112.762 107.731 116.504 107.437 120.232 L 107.299 122.014 C 106.645 130.632 106.153 139.306 106.282 147.938 C 106.401 156.005 108.232 163.835 113.915 170.385 C 119.09 176.349 126.521 180.746 134.928 182.417 C 139.458 183.319 144.083 183.383 148.669 182.808 C 150.891 182.529 153.129 182.1 155.238 181.424 C 157.574 180.674 159.252 179.569 160.823 177.914 C 161.566 177.129 161.209 175.457 159.729 175.614 C 157.491 175.851 155.448 176.135 153.302 176.712 L 152.995 176.796 C 150.858 177.392 148.644 177.837 146.41 178.026 C 141.834 178.411 137.187 178.023 132.803 176.815 C 125.665 174.845 119.518 170.456 115.578 164.942 C 110.901 158.405 110.372 150.985 110.439 143.469 C 110.512 135.222 110.82 126.97 111.323 118.731 L 111.408 117.358 C 111.674 113.118 111.931 108.876 112.157 104.633 C 112.227 103.303 112.334 101.961 112.527 100.633 C 114.291 99.7337 115.871 98.4935 116.901 96.9632 C 118.971 97.7084 121.147 98.246 123.15 98.6745 C 127.788 99.6677 132.604 99.9089 137.326 99.2869 C 138.599 99.7449 139.898 100.148 141.217 100.494 C 141.573 100.632 141.93 100.767 142.286 100.899 C 145.465 102.084 148.69 103.087 152.047 103.822 L 152.871 104.001 C 154.637 104.38 156.556 104.753 158.436 104.87 C 158.744 104.974 159.078 105.062 159.442 105.139 C 161.153 105.501 162.93 105.616 164.684 105.488 C 166.393 105.363 167.628 103.859 166.687 102.451 C 165.999 101.424 165.305 100.399 164.604 99.3771 C 167.041 100.261 169.557 100.995 172.094 101.618 C 174.656 102.246 177.254 102.776 179.856 103.263 C 181.247 103.521 182.643 103.75 184.031 104.008 C 185.025 104.192 186.55 104.287 187.36 104.857 C 188.256 105.482 188.51 106.941 188.849 107.841 C 189.296 109.009 189.714 110.183 190.096 111.37 C 190.857 113.738 191.481 116.142 191.964 118.569 C 192.447 120.999 192.771 123.453 192.952 125.914 C 193.132 128.374 193.052 130.849 193.343 133.297 C 193.499 134.596 195.1 135.264 196.283 134.357 C 196.422 134.25 196.562 134.142 196.7 134.034 L 196.907 133.869 C 197.919 133.071 198.9 132.225 199.71 131.272 C 199.857 131.096 199.997 130.913 200.129 130.726 C 200.15 130.726 200.169 130.721 200.19 130.708 L 200.415 130.561 C 202.887 128.958 207.017 126.87 209.428 129.531 C 210.196 130.379 210.59 131.459 210.916 132.501 L 211.489 134.365 C 211.859 135.582 212.208 136.805 212.412 138.051 C 212.874 140.84 212.641 144.055 210.437 146.29 C 209.556 147.185 208.343 147.823 206.989 147.991 C 206.234 148.082 205.488 147.97 204.739 147.887 C 203.978 147.805 203.244 147.938 202.483 147.874 C 201.272 147.77 200.743 149.032 201.196 149.825 C 201.44 150.251 201.728 150.618 202.055 150.929 C 201.792 151.126 201.541 151.339 201.3 151.563 C 200.584 151.762 199.943 152.191 199.463 152.758 C 199.074 153.216 198.873 153.713 198.839 154.238 C 198.796 154.368 198.76 154.501 198.726 154.637 L 198.07 155.563 C 197.926 155.767 197.782 155.967 197.638 156.164 C 195.969 158.453 194.116 160.391 191.814 162.217 C 189.598 163.973 187.192 165.546 185.11 167.43 L 184.865 167.654 C 182.924 169.435 180.878 171.59 181.638 174.18 C 181.833 174.845 182.9 175.324 183.597 174.874 C 185.838 173.427 186.966 171.132 188.867 169.376 C 190.824 167.566 192.991 165.94 194.954 164.135 C 196.809 162.432 198.274 160.503 199.377 158.379 C 199.817 158.802 200.459 159.103 201.349 159.22 C 202.877 159.419 204.302 158.64 204.968 157.487 C 205.396 157.652 205.833 157.801 206.274 157.918 C 208.591 158.536 210.049 156.292 209.174 154.634 C 208.707 153.745 208.123 152.973 207.398 152.324 C 209.664 152.052 211.969 151.033 213.457 149.761 C 217.193 146.565 217.706 141.761 216.866 137.489 C 216.419 135.224 215.649 132.933 214.649 130.806 C 214.475 130.436 214.289 130.064 214.084 129.696 C 214.197 129.694 214.313 129.651 214.387 129.569 C 215.062 128.765 215.884 128.107 216.386 127.208 C 216.848 126.383 217.361 125.547 217.725 124.687 C 218.473 122.928 218.84 120.943 219.085 119.082 C 219.589 115.274 219.394 111.489 218.724 107.705 C 217.584 101.259 214.831 95.0901 210.774 89.6772 C 210.995 89.5761 211.206 89.4542 211.404 89.3099 L 211.501 89.2359 L 211.659 89.1114 C 212.817 88.1993 212.717 86.4899 211.659 85.5661 L 211.325 85.2745 C 210.902 84.9087 210.537 84.6188 209.854 84.2204 C 209.753 84.1616 209.65 84.1063 209.546 84.0546 C 209.904 83.4792 210.028 82.8064 209.779 82.0641 C 208.911 79.4783 204.637 79.5698 201.928 80.6975 C 198.932 78.369 195.609 76.3476 192.007 74.7108 C 183.429 70.8145 173.73 68.0971 164.259 66.4364 Z M 208.6 134.543 C 206.998 134.088 204.87 135.043 203.43 135.618 C 201.605 136.347 200.052 137.425 198.548 138.564 C 197.799 139.134 197.665 140.065 197.851 140.861 C 197.87 140.941 197.888 141.023 197.91 141.106 C 198.109 141.955 199.197 142.623 200.16 142.599 C 202.174 142.551 203.134 141.037 204.274 139.754 C 204.409 139.962 204.577 140.153 204.785 140.297 L 204.925 140.393 C 205.399 140.706 205.92 140.957 206.546 140.933 C 206.989 140.914 207.413 140.816 207.805 140.638 C 208.783 140.188 209.214 139.086 208.948 138.189 C 208.783 137.625 208.404 137.183 207.909 136.877 L 208.094 136.767 C 208.489 136.528 208.849 136.275 209.13 135.903 L 209.193 135.815 H 209.168 C 209.474 135.357 209.275 134.734 208.6 134.543 Z" stroke-linecap="round"/>
</g>
		<g transform="matrix(1 0 0 1 -33.1002 -67.2261)">
<path style="stroke: none; stroke-width: 1; stroke-dasharray: none; stroke-linecap: butt; stroke-dashoffset: 0; stroke-linejoin: miter; stroke-miterlimit: 4; is-custom-font: none; font-file-url: none; fill: rgb(0,0,0); fill-rule: evenodd; opacity: 1;" transform=" translate(-140.8999, -136.7739)" d="M 140.43 161.531 C 142.489 160.801 144.326 159.583 145.67 158.028 C 146.137 157.488 146.258 156.917 146.16 156.394 C 146.05 155.807 145.65 155.275 145.104 154.918 C 144.557 154.56 143.873 154.384 143.212 154.474 C 142.637 154.552 142.065 154.825 141.612 155.392 L 141.517 155.506 C 140.719 156.444 139.678 157.214 138.492 157.711 C 137.349 158.189 136.071 158.413 134.748 158.283 C 132.229 158.036 130.493 156.852 128.647 155.244 C 128.418 155.042 128.189 154.832 127.959 154.62 C 127.814 154.427 127.613 154.303 127.389 154.238 C 127.14 154.166 126.859 154.17 126.602 154.248 C 126.353 154.323 126.131 154.466 125.982 154.656 C 125.841 154.836 125.761 155.059 125.787 155.316 C 125.956 156.981 126.958 158.468 128.382 159.636 C 129.963 160.932 132.06 161.829 134.033 162.144 C 136.208 162.49 138.423 162.242 140.43 161.531 V 161.531 Z M 133.008 135.832 C 130.694 137.054 127.17 139.902 129.658 142.931 C 132.587 145.601 136.805 142.539 138.883 141.155 C 140.81 140.081 142.976 142.842 141.188 144.095 C 126.17 153.754 120.075 136.151 131.838 134.396 C 133.133 134.202 133.614 135.454 133.008 135.832 Z M 159.92 124.595 C 159.664 121.839 154.832 121.213 154.352 123.94 C 153.921 126.384 154.428 128.628 155.695 130.828 C 156.905 132.929 159.947 131.949 160.177 130.035 C 160.486 127.47 160.079 126.31 159.92 124.595 Z M 123.14 123.375 C 122.466 122.608 121.493 122.085 120.328 122.381 C 116.687 123.305 117.76 127.796 119.039 129.982 C 119.734 131.169 121.98 131.47 122.994 130.425 C 124.649 128.72 125.441 125.316 123.338 123.638 C 123.281 123.551 123.217 123.463 123.14 123.375 Z M 155.746 112.535 L 155.171 112.447 C 153.392 112.18 151.18 111.923 149.921 113.166 C 149.253 113.825 149.024 115.049 149.921 115.68 C 151.499 116.79 153.244 116.36 155.135 116.454 C 156.694 116.532 158.192 116.756 159.693 117.128 C 162.987 117.946 165.671 119.439 168.484 121.079 C 168.853 121.294 169.23 120.884 169.054 120.584 C 167.43 117.82 164.283 115.551 161.131 114.167 C 159.448 113.428 157.607 112.816 155.746 112.535 Z M 126.459 111.297 L 126.018 111.375 C 121.228 112.245 115.004 113.983 112.736 118.07 C 112.65 118.649 112.741 118.772 112.815 118.853 L 112.84 118.88 C 112.901 118.949 112.95 119.045 113.238 119.123 C 113.318 119.107 113.399 119.089 113.481 119.071 C 114.521 118.834 115.343 118.508 116.14 118.169 L 117.003 117.8 C 118.005 117.373 119.016 116.962 120.087 116.658 C 122.373 116.01 124.724 115.554 127.112 115.31 C 127.63 115.257 128.128 115.106 128.521 114.846 C 128.894 114.599 129.179 114.257 129.309 113.803 C 129.478 113.215 129.429 112.77 129.066 112.239 C 128.793 111.841 128.403 111.565 127.954 111.406 C 127.497 111.245 126.976 111.207 126.459 111.297 Z" stroke-linecap="round"/>
</g>
		<g transform="matrix(1 0 0 1 -20.3713 -41.3859)">
<path style="stroke: none; stroke-width: 1; stroke-dasharray: none; stroke-linecap: butt; stroke-dashoffset: 0; stroke-linejoin: miter; stroke-miterlimit: 4; is-custom-font: none; font-file-url: none; fill: rgb(0,0,0); fill-rule: evenodd; opacity: 1;" transform=" translate(-153.6287, -162.6141)" d="M 160.299 163.198 C 157.819 158.15 152.406 154.44 146.173 153.083 C 141.597 152.09 136.794 152.122 132.128 152.516 C 129.684 152.721 127.062 152.889 124.758 153.678 C 122.791 154.352 121.188 155.625 119.983 157.12 C 118.548 158.892 117.572 160.919 116.887 162.997 C 116.789 163.293 116.698 163.59 116.613 163.89 C 116.911 165.458 117.543 166.792 119.215 167.778 C 120.846 168.74 122.792 169.134 124.733 169.274 C 124.923 169.195 125.107 169.113 125.275 169.03 C 128.299 167.526 130.427 163.972 134.243 164.453 C 137.649 164.883 139.891 168.605 141.916 170.788 C 148.417 171.447 154.913 169.749 160.203 166.52 C 160.471 165.414 160.487 164.3 160.299 163.198 M 112.194 159.369 C 112.714 158.101 113.369 156.873 114.146 155.716 C 116.712 151.89 120.653 148.842 125.33 147.099 C 136.396 142.983 150.713 145.885 159.65 152.636 C 162.702 154.944 165.789 158.335 166.722 161.983 C 167.001 162.031 167.264 162.157 167.481 162.334 C 173.937 158.803 180.586 155.405 185.789 150.51 C 189.567 146.953 192.195 142.744 193.804 138.118 C 193.935 137.737 194.642 137.793 194.621 138.214 C 194.615 138.313 194.609 138.411 194.602 138.51 C 194.67 138.329 194.988 138.422 195.012 138.598 C 195.878 144.217 196.961 150.174 195.964 155.822 C 195.367 159.193 193.605 161.66 191.249 164.324 C 188.725 167.18 185.868 169.837 182.946 172.384 C 181.092 174.001 179.156 175.866 176.886 177.051 C 174.246 178.429 171.251 179.476 168.433 180.539 C 165.566 181.623 162.657 182.625 159.693 183.494 C 153.767 185.236 147.642 186.44 141.41 186.968 C 136.42 187.389 130.718 187.847 125.936 186.217 C 122.271 184.967 119.313 182.708 116.966 179.99 C 114.412 177.03 112.392 173.658 111.276 170.103 C 110.116 166.41 111.95 159.964 112.194 159.369" stroke-linecap="round"/>
</g>
		<g transform="matrix(1 0 0 1 -14.2964 -73.5653)">
<path style="stroke: none; stroke-width: 1; stroke-dasharray: none; stroke-linecap: butt; stroke-dashoffset: 0; stroke-linejoin: miter; stroke-miterlimit: 4; is-custom-font: none; font-file-url: none; fill: rgb(0,0,0); fill-rule: evenodd; opacity: 1;" transform=" translate(-159.7035, -130.4347)" d="M 107.177 138.214 C 109.24 140.621 113.064 141.388 116.591 141.123 C 124.197 140.487 126.591 132.981 126.841 127.148 C 121.74 128.394 127.272 119.565 109.835 118.594 C 103.689 118.149 105.383 121.374 102.668 123.731 C 102.724 128.676 103.671 134.05 107.177 138.214 M 143.408 132.531 C 147.899 150.803 172.491 146.456 175.075 129.986 C 172.689 128.523 173.318 124.911 170.354 123.603 C 165.657 120.995 159.786 121.107 154.452 121.168 C 147.635 121.575 145.692 124.029 142.19 126.706 C 142.358 128.493 142.844 130.613 143.408 132.531 M 97.4355 115.568 C 97.6876 115.532 97.94 115.497 98.1925 115.465 C 98.3894 115.368 98.6207 115.293 98.8897 115.248 C 99.5039 115.113 100.114 115.022 100.723 114.972 C 109.463 113.263 129.684 115.69 130.518 122.17 C 133.302 122.977 135.71 122.254 138.936 122.326 C 141.392 113.409 183.845 114.668 185.887 120.044 C 185.894 120.042 185.902 120.04 185.91 120.038 C 187.872 119.511 190.764 119.638 193.009 119.554 C 197.804 119.467 202.604 119.838 207.295 120.717 C 216.079 121.93 228.068 123.349 221.958 132.88 C 221.957 132.881 221.956 132.883 221.955 132.885 L 221.954 132.884 C 220.901 133.821 219.114 133.066 219.047 131.797 C 221.101 127.282 216.462 126.74 212.893 125.443 C 204.011 122.671 194.969 122.286 185.783 123.144 C 185.092 123.851 184.043 124.467 182.935 124.79 C 176.793 125.675 180.03 129.633 176.148 130.209 C 176.861 144.007 157.579 151.538 146.408 142.468 C 141.947 138.679 140.884 133.066 139.85 128.007 C 139.303 127.901 138.955 127.641 138.752 127.297 C 137.437 126.156 136.611 125.103 134.01 124.79 C 131.41 124.477 129.408 125.105 129.137 125.297 C 129.069 125.417 128.995 125.537 128.91 125.656 C 128.791 125.835 128.63 125.977 128.446 126.089 C 131.014 139.829 118.737 148.518 106.343 141.392 C 100.957 136.991 99.8191 130.252 99.5943 124.238 C 98.8643 123.855 98.402 123.114 98.6547 122.181 C 99.003 120.896 98.1863 119.783 96.8856 119.224 C 95.1956 118.498 95.4945 115.847 97.4355 115.568" stroke-linecap="round"/>
</g>
</g>
</g>
<g transform="matrix(1 0 0 1 -329.0258 335.9841)" id="365716">
<g style="" vector-effect="non-scaling-stroke">
		<g transform="matrix(1 0 0 1 -15.2802 -26.1194)">
<path style="stroke: none; stroke-width: 1; stroke-dasharray: none; stroke-linecap: butt; stroke-dashoffset: 0; stroke-linejoin: miter; stroke-miterlimit: 4; is-custom-font: none; font-file-url: none; fill: rgb(237,185,138); fill-rule: evenodd; opacity: 1;" transform=" translate(-158.7197, -177.8806)" d="M 124.688 189.029 C 130.362 185.441 133.176 179.567 135.293 178.567 C 136.85 177.831 136.822 172.755 139.944 170.958 C 144.134 168.547 157.485 166.754 162.342 166.419 C 167.004 166.097 175.113 166.773 179.487 168.256 C 186.782 170.73 189.692 175.448 192.904 181.526 C 192.904 181.526 120.79 191.494 124.688 189.029 Z" stroke-linecap="round"/>
</g>
		<g transform="matrix(1 0 0 1 3.5331 64.7944)">
<path style="stroke: none; stroke-width: 1; stroke-dasharray: none; stroke-linecap: butt; stroke-dashoffset: 0; stroke-linejoin: miter; stroke-miterlimit: 4; is-custom-font: none; font-file-url: none; fill: rgb(0,0,0); fill-rule: evenodd; opacity: 1;" transform=" translate(-177.5331, -268.7945)" d="M 73.8028 330.155 C 74.606 329.807 75.4433 329.409 76.3604 329.381 C 77.9356 329.333 77.9378 327.204 76.3604 327.252 C 74.9847 327.293 73.7765 327.792 72.5658 328.317 C 71.1533 328.929 72.3958 330.765 73.8028 330.155 M 76.3604 270.224 C 75.2855 270.225 74.202 270.343 73.3764 270.996 C 72.8856 271.385 72.9245 272.109 73.3764 272.502 C 73.8601 272.921 74.6204 272.889 75.1096 272.502 C 74.95 272.628 75.1081 272.503 75.166 272.475 C 75.1798 272.468 75.1875 272.464 75.1911 272.461 C 75.2034 272.458 75.2156 272.456 75.2356 272.452 C 75.3636 272.424 75.4901 272.396 75.6197 272.376 C 75.6218 272.381 75.8933 272.36 75.957 272.358 C 76.0918 272.354 76.226 272.353 76.3604 272.353 C 77.0252 272.353 77.5858 271.867 77.5858 271.289 C 77.5858 270.714 77.0227 270.224 76.3604 270.224 M 87.8833 294.107 C 88.2344 295.444 90.5966 294.875 90.2464 293.541 C 89.7373 291.602 89.8301 289.615 90.2464 287.668 C 90.5332 286.327 88.171 285.757 87.8833 287.102 C 87.384 289.437 87.2722 291.78 87.8833 294.107 M 90.9786 217.588 C 92.8038 217.211 94.609 217.166 96.4758 217.166 C 98.0553 217.165 98.0529 215.036 96.4758 215.037 C 94.3937 215.037 92.3611 215.115 90.327 215.535 C 88.791 215.852 89.4454 217.904 90.9786 217.588 M 97.0943 269.449 C 98.1527 268.989 99.2117 268.529 100.27 268.069 C 101.683 267.456 100.44 265.62 99.0334 266.231 L 95.8573 267.61 C 94.4451 268.224 95.6876 270.06 97.0943 269.449 M 97.5351 311.377 C 98.8778 313.059 100.766 314.104 103.031 314.626 C 104.56 314.978 105.206 312.924 103.683 312.573 C 102.063 312.2 100.623 311.52 99.6513 310.303 C 98.7577 309.183 96.6342 310.249 97.5351 311.377 M 106.003 236.414 C 106.367 235.824 106.913 235.575 107.592 235.562 C 109.169 235.53 109.17 233.401 107.592 233.433 C 106.045 233.463 104.627 234.138 103.887 235.34 C 103.143 236.549 105.26 237.623 106.003 236.414 M 121.547 250.886 C 121.987 251.302 122.839 251.292 123.28 250.886 C 123.551 250.638 123.778 250.361 123.957 250.058 C 124.025 249.942 124.089 249.825 124.164 249.713 C 124.197 249.663 124.234 249.614 124.272 249.566 C 124.285 249.556 124.312 249.532 124.339 249.507 C 124.81 249.074 124.798 248.436 124.339 248.001 C 123.9 247.585 123.048 247.596 122.606 248.001 C 122.336 248.249 122.108 248.526 121.93 248.83 C 121.862 248.945 121.798 249.063 121.723 249.175 C 121.689 249.225 121.652 249.274 121.614 249.322 C 121.601 249.332 121.575 249.356 121.547 249.381 C 121.076 249.813 121.088 250.452 121.547 250.886 M 122.854 282.326 C 124.45 282.96 126.201 282.96 127.797 282.326 C 128.401 282.086 128.545 281.327 128.236 280.869 C 127.879 280.339 127.161 280.248 126.56 280.487 C 125.836 280.775 124.814 280.775 124.091 280.487 C 123.487 280.247 122.776 280.332 122.415 280.869 C 122.104 281.33 122.252 282.087 122.854 282.326 M 127.208 304.58 C 127.482 305.144 128.074 305.443 128.766 305.466 C 129.452 305.489 129.963 304.96 129.992 304.402 C 130.01 304.041 129.785 303.732 129.463 303.541 C 129.463 303.521 129.462 303.502 129.462 303.482 C 129.462 302.885 128.901 302.443 128.237 302.417 C 127.575 302.391 127.011 302.925 127.011 303.482 C 127.012 303.858 127.038 304.23 127.208 304.58 M 133.53 339.959 C 135.486 339.986 137.397 340.391 139.353 340.418 C 140.933 340.44 140.929 338.311 139.353 338.289 C 137.397 338.262 135.486 337.857 133.53 337.829 C 131.95 337.807 131.955 339.936 133.53 339.959 M 141.663 203.517 C 142.808 204.464 144.222 204.931 145.616 205.523 C 147.029 206.123 148.27 204.286 146.853 203.685 C 145.672 203.183 144.364 202.813 143.396 202.012 C 142.253 201.066 140.518 202.57 141.663 203.517 M 144.736 228.058 C 145.539 227.71 146.376 227.311 147.293 227.284 C 148.869 227.236 148.871 225.107 147.293 225.155 C 145.918 225.196 144.71 225.695 143.499 226.22 C 142.086 226.832 143.329 228.668 144.736 228.058 M 159.468 326.554 C 159.831 325.964 160.378 325.715 161.056 325.702 C 162.634 325.67 162.634 323.541 161.056 323.572 C 159.509 323.603 158.091 324.278 157.352 325.479 C 156.608 326.689 158.724 327.763 159.468 326.554 M 164.57 280.32 C 165.058 279.931 165.024 279.209 164.57 278.814 C 164.041 278.354 163.511 277.895 162.981 277.435 C 162.497 277.014 161.738 277.044 161.249 277.435 C 160.761 277.823 160.795 278.546 161.249 278.94 C 161.778 279.4 162.308 279.86 162.837 280.32 C 163.322 280.741 164.081 280.71 164.57 280.32 M 170.585 352.376 C 172.353 352.34 174.01 351.899 175.675 351.418 C 177.166 350.987 176.523 348.931 175.023 349.365 C 173.577 349.783 172.123 350.215 170.585 350.247 C 169.008 350.278 169.007 352.407 170.585 352.376 M 178.525 306.846 C 180.123 306.807 181.448 306.101 182.568 305.154 C 183.701 304.197 181.966 302.693 180.835 303.649 C 180.194 304.19 179.454 304.694 178.525 304.717 C 176.949 304.755 176.947 306.884 178.525 306.846 M 173.595 248.294 C 173.575 248.861 173.3 249.468 172.895 249.841 C 171.812 250.837 173.542 252.345 174.628 251.346 C 175.523 250.523 176.008 249.421 176.045 248.294 C 176.091 246.921 173.64 246.927 173.595 248.294 M 192.288 201.922 C 192.8 201.05 193.473 200.026 194.495 199.544 C 195.883 198.89 194.645 197.052 193.258 197.706 C 191.868 198.361 190.874 199.653 190.171 200.847 C 189.455 202.066 191.57 203.142 192.288 201.922 M 195.464 224.064 C 196.033 224.05 196.597 223.966 197.146 223.837 C 197.38 223.781 197.611 223.718 197.846 223.662 C 197.947 223.639 198.373 223.592 198.111 223.604 C 198.775 223.574 199.336 223.142 199.336 222.54 C 199.336 221.987 198.773 221.444 198.111 221.475 C 197.202 221.518 196.374 221.913 195.464 221.935 C 193.888 221.974 193.887 224.103 195.464 224.064 M 203.405 258.097 H 206.051 C 207.631 258.097 207.628 255.967 206.051 255.967 H 203.405 C 201.825 255.967 201.828 258.097 203.405 258.097 M 206.492 352.23 C 207.295 352.579 208.241 352.91 208.891 353.443 C 210.037 354.385 211.772 352.881 210.624 351.938 C 209.795 351.258 208.737 350.83 207.729 350.392 C 207.135 350.134 206.404 350.25 206.052 350.774 C 205.734 351.247 205.9 351.973 206.492 352.23 M 212.406 325.328 C 212.508 325.303 212.617 325.286 212.721 325.274 C 213.137 325.225 213.573 325.242 213.992 325.242 C 215.571 325.241 215.569 323.112 213.992 323.113 C 212.749 323.113 211.456 323.128 210.478 323.884 C 209.982 324.268 210.03 325.001 210.478 325.39 C 210.965 325.813 211.717 325.772 212.211 325.39 C 212.159 325.43 212.338 325.345 212.406 325.328 M 213.991 289.147 C 213.635 288.51 213.63 288.094 213.629 287.385 C 213.628 286.013 211.177 286.015 211.178 287.385 C 211.179 288.414 211.355 289.29 211.875 290.222 C 212.165 290.742 213.014 290.877 213.551 290.604 C 214.153 290.298 214.279 289.665 213.991 289.147 M 221.077 239.203 C 222.498 239.623 223.767 240.218 225.019 240.935 C 226.34 241.693 227.566 239.848 226.256 239.097 C 224.827 238.278 223.35 237.629 221.729 237.15 C 220.229 236.707 219.592 238.764 221.077 239.203 M 229.343 203.369 C 230.399 203.395 231.489 203.746 232.43 204.143 C 233.844 204.74 235.085 202.903 233.667 202.305 C 232.322 201.738 230.852 201.277 229.343 201.24 C 227.763 201.201 227.769 203.331 229.343 203.369 M 233.048 299.028 C 233.464 299.044 233.819 298.849 234.039 298.568 C 234.062 298.568 234.084 298.568 234.107 298.568 C 234.794 298.567 235.302 298.08 235.332 297.503 C 235.362 296.928 234.748 296.438 234.107 296.438 C 233.675 296.439 233.245 296.462 232.843 296.609 C 232.194 296.847 231.849 297.361 231.823 297.963 C 231.797 298.559 232.405 299.003 233.048 299.028 M 239.075 225.406 C 240.58 225.833 241.219 223.777 239.727 223.353 C 237.975 222.856 236.184 222.47 234.433 221.973 C 232.928 221.546 232.289 223.603 233.781 224.026 C 235.533 224.523 237.323 224.909 239.075 225.406 M 244.571 265.593 C 245.038 266.9 247.402 266.339 246.934 265.027 C 246.482 263.761 246.45 262.487 246.449 261.171 C 246.448 259.799 243.997 259.801 243.998 261.171 C 243.999 262.668 244.057 264.152 244.571 265.593 M 260.956 313.727 C 261.045 314.257 261.529 314.639 262.163 314.664 C 262.808 314.689 263.411 314.157 263.388 313.6 C 263.343 312.528 262.337 311.654 261.104 311.615 C 260.418 311.593 259.907 312.12 259.879 312.68 C 259.85 313.223 260.373 313.648 260.956 313.727 M 269.248 252.54 C 270.543 252.916 271.927 253.273 272.942 254.106 C 274.089 255.046 275.824 253.543 274.675 252.6 C 273.336 251.502 271.614 250.984 269.899 250.487 C 268.398 250.051 267.76 252.108 269.248 252.54 M 274.868 293.901 C 275.224 294.43 275.945 294.525 276.544 294.283 C 277.348 293.959 278.235 293.969 279.102 293.969 C 280.681 293.968 280.679 291.838 279.102 291.84 C 277.765 291.841 276.532 291.95 275.307 292.445 C 274.705 292.688 274.558 293.441 274.868 293.901 M 278.043 344.098 C 278.729 344.119 279.24 343.592 279.269 343.033 C 279.297 342.489 278.775 342.065 278.191 341.985 C 278.102 341.455 277.618 341.073 276.985 341.049 C 276.339 341.023 275.736 341.556 275.759 342.113 C 275.804 343.185 276.809 344.058 278.043 344.098 M 54.7762 352.148 C 55.1925 350.846 56.1452 349.795 56.8651 348.624 C 57.1065 348.229 57.1904 347.984 57.3212 347.695 C 57.4989 348.004 57.8438 348.236 58.3625 348.237 C 59.3574 348.237 60.5212 348.181 61.4497 348.551 C 62.0535 348.792 62.7648 348.706 63.126 348.169 C 63.4363 347.708 63.2881 346.952 62.6864 346.713 C 61.318 346.168 59.847 346.108 58.3625 346.107 C 57.9958 346.107 57.7182 346.225 57.5222 346.401 C 56.9548 339.651 56.9689 332.897 57.5056 326.143 C 58.0782 318.925 59.3957 311.851 60.7743 304.726 C 61.4418 301.272 62.3087 297.782 62.1402 294.264 C 61.9717 290.77 60.2471 287.512 61.4693 284.007 C 61.9595 282.602 62.7989 281.313 63.3441 279.924 C 63.9292 278.428 63.8772 276.951 63.6106 275.402 C 63.0623 272.249 62.1528 269.132 63.6079 266.053 C 64.2509 264.687 65.2928 263.468 65.7948 262.058 C 66.4198 260.304 66.334 258.364 66.4381 256.546 C 66.6495 252.879 66.7047 249.187 67.0542 245.528 C 67.2101 243.888 67.5501 242.334 68.3252 240.83 C 69.0699 239.382 70.1755 238.065 70.6687 236.529 C 71.1588 235.018 71.2017 233.423 71.4651 231.877 C 71.7408 230.243 72.1728 228.633 72.7548 227.063 C 75.0034 220.984 79.1236 215.522 83.9913 210.788 C 89.1654 205.755 95.3503 201.965 101.915 198.433 C 105.367 196.576 108.819 194.719 112.269 192.862 C 112.342 193.21 112.598 193.53 113.089 193.673 C 114.385 194.049 115.768 194.406 116.783 195.239 C 117.93 196.179 119.666 194.676 118.516 193.733 C 117.317 192.75 115.81 192.232 114.277 191.777 C 115.849 190.917 117.437 190.025 119.211 189.528 C 120.764 189.092 123.056 189.472 124.315 188.482 C 125.304 187.702 125.617 186.257 125.996 185.198 C 126.471 183.883 126.882 182.497 127.485 181.219 C 127.896 180.346 128.493 179.508 129.247 178.832 C 129.577 177.725 130.184 176.713 131.257 176.098 C 134.062 174.486 137.509 176.088 138.743 178.387 C 139.763 178.385 140.838 178.579 141.831 178.632 C 143.871 178.744 145.914 178.794 147.958 178.789 C 151.955 178.779 155.956 178.552 159.92 178.092 C 167.009 177.267 173.886 175.603 180.855 174.307 C 180.895 174.227 180.941 174.148 180.996 174.068 C 182.497 171.88 186.238 172.25 188.594 173.078 C 189.604 173.432 190.634 173.879 191.213 174.709 C 191.825 175.068 192.355 175.505 192.708 175.965 C 193.437 176.916 194 178.832 195.48 178.991 C 196.454 179.095 197.444 178.933 198.433 179.055 C 199.671 179.204 200.78 179.582 201.922 180.013 C 210.622 183.295 219.616 186.944 229.058 188.216 C 231.273 188.514 233.527 188.823 235.451 189.901 C 237.013 190.776 238.221 191.979 239.51 193.121 C 240.766 194.234 241.801 194.726 243.593 194.926 C 245.768 195.168 247.652 195.689 249.242 197.063 C 250.563 198.204 251.423 199.663 252.459 200.988 C 253.513 202.34 255.06 203.101 256.665 203.887 C 260.46 205.744 263.996 207.988 267.074 210.679 C 273.559 216.353 277.487 223.645 281.445 230.751 C 285.724 238.438 289.725 246.217 292.5 254.425 C 295.221 262.484 296.838 270.774 297.586 279.142 C 298.373 287.922 298.483 296.737 299.139 305.522 C 299.466 309.911 299.715 314.305 299.966 318.696 C 300.211 323.034 300.569 327.38 300.511 331.724 C 300.401 340.121 298.468 348.544 295.089 356.406 C 294.246 358.362 293.312 360.292 292.317 362.192 C 291.443 363.861 288.457 363.675 287.519 362.192 C 287.305 361.852 287.136 361.5 286.995 361.144 C 284.545 361.162 282.069 360.997 279.634 361.194 C 275.333 361.543 271.023 361.737 266.71 361.969 C 258.175 362.429 249.625 362.735 241.088 363.158 C 240.259 363.199 239.431 363.241 238.603 363.283 C 244.687 346.923 243.898 329.235 244.861 312.22 C 244.938 310.848 242.487 310.856 242.41 312.22 C 241.443 329.308 242.266 347.041 235.967 363.428 C 233.523 363.572 231.083 363.748 228.65 364.005 C 226.684 364.21 224.708 364.452 222.723 364.367 C 220.471 364.273 218.272 363.826 216.075 363.438 C 212.084 362.732 208.239 363.052 204.232 363.486 C 199.946 363.951 195.645 364.21 191.332 364.372 C 174.061 365.029 156.673 365.628 139.408 364.625 C 135.229 364.383 131.06 364.042 126.909 363.579 C 122.633 363.102 118.402 362.301 114.129 361.846 C 109.917 361.399 106.045 362.626 101.881 362.852 C 97.6359 363.084 93.2764 362.315 89.0704 361.873 C 87.6983 361.728 86.3247 361.588 84.9508 361.448 C 86.7196 350.916 87.7253 340.304 88.7022 329.696 C 88.8281 328.328 86.3765 328.339 86.2515 329.696 C 85.2825 340.221 84.2992 350.754 82.5331 361.203 C 75.25 360.467 67.9597 359.722 60.7525 358.575 C 58.7 358.251 56.6598 357.721 55.4314 356.129 C 54.5219 354.95 54.3378 353.505 54.7762 352.148" stroke-linecap="round"/>
</g>
		<g transform="matrix(1 0 0 1 -13.0666 -68.9509)">
<path style="stroke: none; stroke-width: 1; stroke-dasharray: none; stroke-linecap: butt; stroke-dashoffset: 0; stroke-linejoin: miter; stroke-miterlimit: 4; is-custom-font: none; font-file-url: none; fill: rgb(237,185,138); fill-rule: evenodd; opacity: 1;" transform=" translate(-160.9335, -135.0491)" d="M 110.075 128.815 C 110.733 123.781 109.882 113.259 109.825 112.619 C 109.464 108.578 111.639 92.6192 115.751 94.0897 C 122.648 89.3361 131.834 88.2864 140.424 87.785 C 158.266 86.7433 177.247 89.1346 191.025 99.5888 C 197.839 105.018 204.472 112.914 203.939 121.136 C 210.129 128.929 218.856 139.619 211.143 148.73 C 208.521 151.641 204.354 152.725 201.061 154.93 C 194.436 159.582 190.28 166.258 183.592 170.883 C 165.874 184.744 135.789 187.64 118.381 171.874 C 104.92 160.455 107.096 143.372 109.464 128.815 C 111.056 119.028 108.792 138.636 110.075 128.815 Z" stroke-linecap="round"/>
</g>
		<g transform="matrix(1 0 0 1 -12.1585 -79.8074)">
<path style="stroke: none; stroke-width: 1; stroke-dasharray: none; stroke-linecap: butt; stroke-dashoffset: 0; stroke-linejoin: miter; stroke-miterlimit: 4; is-custom-font: none; font-file-url: none; fill: rgb(0,0,0); fill-rule: evenodd; opacity: 1;" transform=" translate(-161.8416, -124.1926)" d="M 164.259 66.4364 C 159.487 65.598 154.587 65.0764 149.714 65.2334 L 149.339 65.2461 C 145.672 65.3737 141.029 65.6559 137.83 67.5121 C 137.646 67.3514 137.35 67.2689 137.082 67.3804 C 133.281 68.96 129.1 70.102 125.098 71.2368 C 121.114 72.3661 116.981 73.1116 112.806 73.412 C 111.235 73.5251 109.891 75.002 110.885 76.3266 C 111.122 76.6422 111.352 76.9611 111.582 77.2807 C 111.198 77.2458 110.814 77.2099 110.43 77.1761 C 109.167 77.0654 107.904 78.2394 107.979 79.3103 C 108.026 79.9839 108.11 80.6496 108.233 81.3072 C 107.752 81.2984 107.274 81.3612 106.811 81.5313 C 104.471 82.3918 104.634 84.8187 104.809 86.6652 C 105.052 89.2277 106.153 91.9418 108.196 93.8597 C 106.67 95.2396 105.59 96.8876 104.946 98.8448 C 104.478 100.274 104.218 101.796 104.347 103.284 L 104.387 103.73 C 104.546 105.344 104.862 107.131 106.196 108.293 C 106.881 108.892 107.724 109.11 108.529 109.041 C 108.042 112.762 107.731 116.504 107.437 120.232 L 107.299 122.014 C 106.645 130.632 106.153 139.306 106.282 147.938 C 106.401 156.005 108.232 163.835 113.915 170.385 C 119.09 176.349 126.521 180.746 134.928 182.417 C 139.458 183.319 144.083 183.383 148.669 182.808 C 150.891 182.529 153.129 182.1 155.238 181.424 C 157.574 180.674 159.252 179.569 160.823 177.914 C 161.566 177.129 161.209 175.457 159.729 175.614 C 157.491 175.851 155.448 176.135 153.302 176.712 L 152.995 176.796 C 150.858 177.392 148.644 177.837 146.41 178.026 C 141.834 178.411 137.187 178.023 132.803 176.815 C 125.665 174.845 119.518 170.456 115.578 164.942 C 110.901 158.405 110.372 150.985 110.439 143.469 C 110.512 135.222 110.82 126.97 111.323 118.731 L 111.408 117.358 C 111.674 113.118 111.931 108.876 112.157 104.633 C 112.227 103.303 112.334 101.961 112.527 100.633 C 114.291 99.7337 115.871 98.4935 116.901 96.9632 C 118.971 97.7084 121.147 98.246 123.15 98.6745 C 127.788 99.6677 132.604 99.9089 137.326 99.2869 C 138.599 99.7449 139.898 100.148 141.217 100.494 C 141.573 100.632 141.93 100.767 142.286 100.899 C 145.465 102.084 148.69 103.087 152.047 103.822 L 152.871 104.001 C 154.637 104.38 156.556 104.753 158.436 104.87 C 158.744 104.974 159.078 105.062 159.442 105.139 C 161.153 105.501 162.93 105.616 164.684 105.488 C 166.393 105.363 167.628 103.859 166.687 102.451 C 165.999 101.424 165.305 100.399 164.604 99.3771 C 167.041 100.261 169.557 100.995 172.094 101.618 C 174.656 102.246 177.254 102.776 179.856 103.263 C 181.247 103.521 182.643 103.75 184.031 104.008 C 185.025 104.192 186.55 104.287 187.36 104.857 C 188.256 105.482 188.51 106.941 188.849 107.841 C 189.296 109.009 189.714 110.183 190.096 111.37 C 190.857 113.738 191.481 116.142 191.964 118.569 C 192.447 120.999 192.771 123.453 192.952 125.914 C 193.132 128.374 193.052 130.849 193.343 133.297 C 193.499 134.596 195.1 135.264 196.283 134.357 C 196.422 134.25 196.562 134.142 196.7 134.034 L 196.907 133.869 C 197.919 133.071 198.9 132.225 199.71 131.272 C 199.857 131.096 199.997 130.913 200.129 130.726 C 200.15 130.726 200.169 130.721 200.19 130.708 L 200.415 130.561 C 202.887 128.958 207.017 126.87 209.428 129.531 C 210.196 130.379 210.59 131.459 210.916 132.501 L 211.489 134.365 C 211.859 135.582 212.208 136.805 212.412 138.051 C 212.874 140.84 212.641 144.055 210.437 146.29 C 209.556 147.185 208.343 147.823 206.989 147.991 C 206.234 148.082 205.488 147.97 204.739 147.887 C 203.978 147.805 203.244 147.938 202.483 147.874 C 201.272 147.77 200.743 149.032 201.196 149.825 C 201.44 150.251 201.728 150.618 202.055 150.929 C 201.792 151.126 201.541 151.339 201.3 151.563 C 200.584 151.762 199.943 152.191 199.463 152.758 C 199.074 153.216 198.873 153.713 198.839 154.238 C 198.796 154.368 198.76 154.501 198.726 154.637 L 198.07 155.563 C 197.926 155.767 197.782 155.967 197.638 156.164 C 195.969 158.453 194.116 160.391 191.814 162.217 C 189.598 163.973 187.192 165.546 185.11 167.43 L 184.865 167.654 C 182.924 169.435 180.878 171.59 181.638 174.18 C 181.833 174.845 182.9 175.324 183.597 174.874 C 185.838 173.427 186.966 171.132 188.867 169.376 C 190.824 167.566 192.991 165.94 194.954 164.135 C 196.809 162.432 198.274 160.503 199.377 158.379 C 199.817 158.802 200.459 159.103 201.349 159.22 C 202.877 159.419 204.302 158.64 204.968 157.487 C 205.396 157.652 205.833 157.801 206.274 157.918 C 208.591 158.536 210.049 156.292 209.174 154.634 C 208.707 153.745 208.123 152.973 207.398 152.324 C 209.664 152.052 211.969 151.033 213.457 149.761 C 217.193 146.565 217.706 141.761 216.866 137.489 C 216.419 135.224 215.649 132.933 214.649 130.806 C 214.475 130.436 214.289 130.064 214.084 129.696 C 214.197 129.694 214.313 129.651 214.387 129.569 C 215.062 128.765 215.884 128.107 216.386 127.208 C 216.848 126.383 217.361 125.547 217.725 124.687 C 218.473 122.928 218.84 120.943 219.085 119.082 C 219.589 115.274 219.394 111.489 218.724 107.705 C 217.584 101.259 214.831 95.0901 210.774 89.6772 C 210.995 89.5761 211.206 89.4542 211.404 89.3099 L 211.501 89.2359 L 211.659 89.1114 C 212.817 88.1993 212.717 86.4899 211.659 85.5661 L 211.325 85.2745 C 210.902 84.9087 210.537 84.6188 209.854 84.2204 C 209.753 84.1616 209.65 84.1063 209.546 84.0546 C 209.904 83.4792 210.028 82.8064 209.779 82.0641 C 208.911 79.4783 204.637 79.5698 201.928 80.6975 C 198.932 78.369 195.609 76.3476 192.007 74.7108 C 183.429 70.8145 173.73 68.0971 164.259 66.4364 Z M 208.6 134.543 C 206.998 134.088 204.87 135.043 203.43 135.618 C 201.605 136.347 200.052 137.425 198.548 138.564 C 197.799 139.134 197.665 140.065 197.851 140.861 C 197.87 140.941 197.888 141.023 197.91 141.106 C 198.109 141.955 199.197 142.623 200.16 142.599 C 202.174 142.551 203.134 141.037 204.274 139.754 C 204.409 139.962 204.577 140.153 204.785 140.297 L 204.925 140.393 C 205.399 140.706 205.92 140.957 206.546 140.933 C 206.989 140.914 207.413 140.816 207.805 140.638 C 208.783 140.188 209.214 139.086 208.948 138.189 C 208.783 137.625 208.404 137.183 207.909 136.877 L 208.094 136.767 C 208.489 136.528 208.849 136.275 209.13 135.903 L 209.193 135.815 H 209.168 C 209.474 135.357 209.275 134.734 208.6 134.543 Z" stroke-linecap="round"/>
</g>
		<g transform="matrix(1 0 0 1 -33.1002 -67.2261)">
<path style="stroke: none; stroke-width: 1; stroke-dasharray: none; stroke-linecap: butt; stroke-dashoffset: 0; stroke-linejoin: miter; stroke-miterlimit: 4; is-custom-font: none; font-file-url: none; fill: rgb(0,0,0); fill-rule: evenodd; opacity: 1;" transform=" translate(-140.8999, -136.7739)" d="M 140.43 161.531 C 142.489 160.801 144.326 159.583 145.67 158.028 C 146.137 157.488 146.258 156.917 146.16 156.394 C 146.05 155.807 145.65 155.275 145.104 154.918 C 144.557 154.56 143.873 154.384 143.212 154.474 C 142.637 154.552 142.065 154.825 141.612 155.392 L 141.517 155.506 C 140.719 156.444 139.678 157.214 138.492 157.711 C 137.349 158.189 136.071 158.413 134.748 158.283 C 132.229 158.036 130.493 156.852 128.647 155.244 C 128.418 155.042 128.189 154.832 127.959 154.62 C 127.814 154.427 127.613 154.303 127.389 154.238 C 127.14 154.166 126.859 154.17 126.602 154.248 C 126.353 154.323 126.131 154.466 125.982 154.656 C 125.841 154.836 125.761 155.059 125.787 155.316 C 125.956 156.981 126.958 158.468 128.382 159.636 C 129.963 160.932 132.06 161.829 134.033 162.144 C 136.208 162.49 138.423 162.242 140.43 161.531 V 161.531 Z M 133.008 135.832 C 130.694 137.054 127.17 139.902 129.658 142.931 C 132.587 145.601 136.805 142.539 138.883 141.155 C 140.81 140.081 142.976 142.842 141.188 144.095 C 126.17 153.754 120.075 136.151 131.838 134.396 C 133.133 134.202 133.614 135.454 133.008 135.832 Z M 159.92 124.595 C 159.664 121.839 154.832 121.213 154.352 123.94 C 153.921 126.384 154.428 128.628 155.695 130.828 C 156.905 132.929 159.947 131.949 160.177 130.035 C 160.486 127.47 160.079 126.31 159.92 124.595 Z M 123.14 123.375 C 122.466 122.608 121.493 122.085 120.328 122.381 C 116.687 123.305 117.76 127.796 119.039 129.982 C 119.734 131.169 121.98 131.47 122.994 130.425 C 124.649 128.72 125.441 125.316 123.338 123.638 C 123.281 123.551 123.217 123.463 123.14 123.375 Z M 155.746 112.535 L 155.171 112.447 C 153.392 112.18 151.18 111.923 149.921 113.166 C 149.253 113.825 149.024 115.049 149.921 115.68 C 151.499 116.79 153.244 116.36 155.135 116.454 C 156.694 116.532 158.192 116.756 159.693 117.128 C 162.987 117.946 165.671 119.439 168.484 121.079 C 168.853 121.294 169.23 120.884 169.054 120.584 C 167.43 117.82 164.283 115.551 161.131 114.167 C 159.448 113.428 157.607 112.816 155.746 112.535 Z M 126.459 111.297 L 126.018 111.375 C 121.228 112.245 115.004 113.983 112.736 118.07 C 112.65 118.649 112.741 118.772 112.815 118.853 L 112.84 118.88 C 112.901 118.949 112.95 119.045 113.238 119.123 C 113.318 119.107 113.399 119.089 113.481 119.071 C 114.521 118.834 115.343 118.508 116.14 118.169 L 117.003 117.8 C 118.005 117.373 119.016 116.962 120.087 116.658 C 122.373 116.01 124.724 115.554 127.112 115.31 C 127.63 115.257 128.128 115.106 128.521 114.846 C 128.894 114.599 129.179 114.257 129.309 113.803 C 129.478 113.215 129.429 112.77 129.066 112.239 C 128.793 111.841 128.403 111.565 127.954 111.406 C 127.497 111.245 126.976 111.207 126.459 111.297 Z" stroke-linecap="round"/>
</g>
		<g transform="matrix(1 0 0 1 -20.3713 -41.3859)">
<path style="stroke: none; stroke-width: 1; stroke-dasharray: none; stroke-linecap: butt; stroke-dashoffset: 0; stroke-linejoin: miter; stroke-miterlimit: 4; is-custom-font: none; font-file-url: none; fill: rgb(0,0,0); fill-rule: evenodd; opacity: 1;" transform=" translate(-153.6287, -162.6141)" d="M 160.299 163.198 C 157.819 158.15 152.406 154.44 146.173 153.083 C 141.597 152.09 136.794 152.122 132.128 152.516 C 129.684 152.721 127.062 152.889 124.758 153.678 C 122.791 154.352 121.188 155.625 119.983 157.12 C 118.548 158.892 117.572 160.919 116.887 162.997 C 116.789 163.293 116.698 163.59 116.613 163.89 C 116.911 165.458 117.543 166.792 119.215 167.778 C 120.846 168.74 122.792 169.134 124.733 169.274 C 124.923 169.195 125.107 169.113 125.275 169.03 C 128.299 167.526 130.427 163.972 134.243 164.453 C 137.649 164.883 139.891 168.605 141.916 170.788 C 148.417 171.447 154.913 169.749 160.203 166.52 C 160.471 165.414 160.487 164.3 160.299 163.198 M 112.194 159.369 C 112.714 158.101 113.369 156.873 114.146 155.716 C 116.712 151.89 120.653 148.842 125.33 147.099 C 136.396 142.983 150.713 145.885 159.65 152.636 C 162.702 154.944 165.789 158.335 166.722 161.983 C 167.001 162.031 167.264 162.157 167.481 162.334 C 173.937 158.803 180.586 155.405 185.789 150.51 C 189.567 146.953 192.195 142.744 193.804 138.118 C 193.935 137.737 194.642 137.793 194.621 138.214 C 194.615 138.313 194.609 138.411 194.602 138.51 C 194.67 138.329 194.988 138.422 195.012 138.598 C 195.878 144.217 196.961 150.174 195.964 155.822 C 195.367 159.193 193.605 161.66 191.249 164.324 C 188.725 167.18 185.868 169.837 182.946 172.384 C 181.092 174.001 179.156 175.866 176.886 177.051 C 174.246 178.429 171.251 179.476 168.433 180.539 C 165.566 181.623 162.657 182.625 159.693 183.494 C 153.767 185.236 147.642 186.44 141.41 186.968 C 136.42 187.389 130.718 187.847 125.936 186.217 C 122.271 184.967 119.313 182.708 116.966 179.99 C 114.412 177.03 112.392 173.658 111.276 170.103 C 110.116 166.41 111.95 159.964 112.194 159.369" stroke-linecap="round"/>
</g>
		<g transform="matrix(1 0 0 1 -14.2964 -73.5653)">
<path style="stroke: none; stroke-width: 1; stroke-dasharray: none; stroke-linecap: butt; stroke-dashoffset: 0; stroke-linejoin: miter; stroke-miterlimit: 4; is-custom-font: none; font-file-url: none; fill: rgb(0,0,0); fill-rule: evenodd; opacity: 1;" transform=" translate(-159.7035, -130.4347)" d="M 107.177 138.214 C 109.24 140.621 113.064 141.388 116.591 141.123 C 124.197 140.487 126.591 132.981 126.841 127.148 C 121.74 128.394 127.272 119.565 109.835 118.594 C 103.689 118.149 105.383 121.374 102.668 123.731 C 102.724 128.676 103.671 134.05 107.177 138.214 M 143.408 132.531 C 147.899 150.803 172.491 146.456 175.075 129.986 C 172.689 128.523 173.318 124.911 170.354 123.603 C 165.657 120.995 159.786 121.107 154.452 121.168 C 147.635 121.575 145.692 124.029 142.19 126.706 C 142.358 128.493 142.844 130.613 143.408 132.531 M 97.4355 115.568 C 97.6876 115.532 97.94 115.497 98.1925 115.465 C 98.3894 115.368 98.6207 115.293 98.8897 115.248 C 99.5039 115.113 100.114 115.022 100.723 114.972 C 109.463 113.263 129.684 115.69 130.518 122.17 C 133.302 122.977 135.71 122.254 138.936 122.326 C 141.392 113.409 183.845 114.668 185.887 120.044 C 185.894 120.042 185.902 120.04 185.91 120.038 C 187.872 119.511 190.764 119.638 193.009 119.554 C 197.804 119.467 202.604 119.838 207.295 120.717 C 216.079 121.93 228.068 123.349 221.958 132.88 C 221.957 132.881 221.956 132.883 221.955 132.885 L 221.954 132.884 C 220.901 133.821 219.114 133.066 219.047 131.797 C 221.101 127.282 216.462 126.74 212.893 125.443 C 204.011 122.671 194.969 122.286 185.783 123.144 C 185.092 123.851 184.043 124.467 182.935 124.79 C 176.793 125.675 180.03 129.633 176.148 130.209 C 176.861 144.007 157.579 151.538 146.408 142.468 C 141.947 138.679 140.884 133.066 139.85 128.007 C 139.303 127.901 138.955 127.641 138.752 127.297 C 137.437 126.156 136.611 125.103 134.01 124.79 C 131.41 124.477 129.408 125.105 129.137 125.297 C 129.069 125.417 128.995 125.537 128.91 125.656 C 128.791 125.835 128.63 125.977 128.446 126.089 C 131.014 139.829 118.737 148.518 106.343 141.392 C 100.957 136.991 99.8191 130.252 99.5943 124.238 C 98.8643 123.855 98.402 123.114 98.6547 122.181 C 99.003 120.896 98.1863 119.783 96.8856 119.224 C 95.1956 118.498 95.4945 115.847 97.4355 115.568" stroke-linecap="round"/>
</g>
</g>
</g>
<g transform="matrix(1 0 0 1 500 500)" id="281454">
<path style="stroke: none; stroke-width: 1; stroke-dasharray: none; stroke-linecap: butt; stroke-dashoffset: 0; stroke-linejoin: miter; stroke-miterlimit: 4; is-custom-font: none; font-file-url: none; fill: rgb(255,230,143); fill-rule: nonzero; opacity: 1;" vector-effect="non-scaling-stroke" transform=" translate(-223.3528, -187.4299)" d="M 343.684 92.4427 C 371.29 121.881 375.784 166.576 362.516 204.989 C 349.248 243.402 318.432 275.533 275.418 297.073 C 232.19 318.613 176.764 329.742 138.244 313.407 C 99.724 297.073 77.896 253.454 77.04 215.58 C 76.184 177.885 96.514 146.113 122.836 117.034 C 149.158 87.7757 181.472 61.2097 223.202 55.1067 C 264.932 48.8242 315.864 63.0047 343.684 92.4427 Z" stroke-linecap="round"/>
</g>
<g transform="matrix(1 0 0 1 484.0954 424.4533)" id="522022">
<g style="" vector-effect="non-scaling-stroke">
		<g transform="matrix(1 0 0 1 -15.2802 -26.1194)">
<path style="stroke: none; stroke-width: 1; stroke-dasharray: none; stroke-linecap: butt; stroke-dashoffset: 0; stroke-linejoin: miter; stroke-miterlimit: 4; is-custom-font: none; font-file-url: none; fill: rgb(237,185,138); fill-rule: evenodd; opacity: 1;" transform=" translate(-158.7197, -177.8806)" d="M 124.688 189.029 C 130.362 185.441 133.176 179.567 135.293 178.567 C 136.85 177.831 136.822 172.755 139.944 170.958 C 144.134 168.547 157.485 166.754 162.342 166.419 C 167.004 166.097 175.113 166.773 179.487 168.256 C 186.782 170.73 189.692 175.448 192.904 181.526 C 192.904 181.526 120.79 191.494 124.688 189.029 Z" stroke-linecap="round"/>
</g>
		<g transform="matrix(1 0 0 1 3.5331 64.7944)">
<path style="stroke: none; stroke-width: 1; stroke-dasharray: none; stroke-linecap: butt; stroke-dashoffset: 0; stroke-linejoin: miter; stroke-miterlimit: 4; is-custom-font: none; font-file-url: none; fill: rgb(0,0,0); fill-rule: evenodd; opacity: 1;" transform=" translate(-177.5331, -268.7945)" d="M 73.8028 330.155 C 74.606 329.807 75.4433 329.409 76.3604 329.381 C 77.9356 329.333 77.9378 327.204 76.3604 327.252 C 74.9847 327.293 73.7765 327.792 72.5658 328.317 C 71.1533 328.929 72.3958 330.765 73.8028 330.155 M 76.3604 270.224 C 75.2855 270.225 74.202 270.343 73.3764 270.996 C 72.8856 271.385 72.9245 272.109 73.3764 272.502 C 73.8601 272.921 74.6204 272.889 75.1096 272.502 C 74.95 272.628 75.1081 272.503 75.166 272.475 C 75.1798 272.468 75.1875 272.464 75.1911 272.461 C 75.2034 272.458 75.2156 272.456 75.2356 272.452 C 75.3636 272.424 75.4901 272.396 75.6197 272.376 C 75.6218 272.381 75.8933 272.36 75.957 272.358 C 76.0918 272.354 76.226 272.353 76.3604 272.353 C 77.0252 272.353 77.5858 271.867 77.5858 271.289 C 77.5858 270.714 77.0227 270.224 76.3604 270.224 M 87.8833 294.107 C 88.2344 295.444 90.5966 294.875 90.2464 293.541 C 89.7373 291.602 89.8301 289.615 90.2464 287.668 C 90.5332 286.327 88.171 285.757 87.8833 287.102 C 87.384 289.437 87.2722 291.78 87.8833 294.107 M 90.9786 217.588 C 92.8038 217.211 94.609 217.166 96.4758 217.166 C 98.0553 217.165 98.0529 215.036 96.4758 215.037 C 94.3937 215.037 92.3611 215.115 90.327 215.535 C 88.791 215.852 89.4454 217.904 90.9786 217.588 M 97.0943 269.449 C 98.1527 268.989 99.2117 268.529 100.27 268.069 C 101.683 267.456 100.44 265.62 99.0334 266.231 L 95.8573 267.61 C 94.4451 268.224 95.6876 270.06 97.0943 269.449 M 97.5351 311.377 C 98.8778 313.059 100.766 314.104 103.031 314.626 C 104.56 314.978 105.206 312.924 103.683 312.573 C 102.063 312.2 100.623 311.52 99.6513 310.303 C 98.7577 309.183 96.6342 310.249 97.5351 311.377 M 106.003 236.414 C 106.367 235.824 106.913 235.575 107.592 235.562 C 109.169 235.53 109.17 233.401 107.592 233.433 C 106.045 233.463 104.627 234.138 103.887 235.34 C 103.143 236.549 105.26 237.623 106.003 236.414 M 121.547 250.886 C 121.987 251.302 122.839 251.292 123.28 250.886 C 123.551 250.638 123.778 250.361 123.957 250.058 C 124.025 249.942 124.089 249.825 124.164 249.713 C 124.197 249.663 124.234 249.614 124.272 249.566 C 124.285 249.556 124.312 249.532 124.339 249.507 C 124.81 249.074 124.798 248.436 124.339 248.001 C 123.9 247.585 123.048 247.596 122.606 248.001 C 122.336 248.249 122.108 248.526 121.93 248.83 C 121.862 248.945 121.798 249.063 121.723 249.175 C 121.689 249.225 121.652 249.274 121.614 249.322 C 121.601 249.332 121.575 249.356 121.547 249.381 C 121.076 249.813 121.088 250.452 121.547 250.886 M 122.854 282.326 C 124.45 282.96 126.201 282.96 127.797 282.326 C 128.401 282.086 128.545 281.327 128.236 280.869 C 127.879 280.339 127.161 280.248 126.56 280.487 C 125.836 280.775 124.814 280.775 124.091 280.487 C 123.487 280.247 122.776 280.332 122.415 280.869 C 122.104 281.33 122.252 282.087 122.854 282.326 M 127.208 304.58 C 127.482 305.144 128.074 305.443 128.766 305.466 C 129.452 305.489 129.963 304.96 129.992 304.402 C 130.01 304.041 129.785 303.732 129.463 303.541 C 129.463 303.521 129.462 303.502 129.462 303.482 C 129.462 302.885 128.901 302.443 128.237 302.417 C 127.575 302.391 127.011 302.925 127.011 303.482 C 127.012 303.858 127.038 304.23 127.208 304.58 M 133.53 339.959 C 135.486 339.986 137.397 340.391 139.353 340.418 C 140.933 340.44 140.929 338.311 139.353 338.289 C 137.397 338.262 135.486 337.857 133.53 337.829 C 131.95 337.807 131.955 339.936 133.53 339.959 M 141.663 203.517 C 142.808 204.464 144.222 204.931 145.616 205.523 C 147.029 206.123 148.27 204.286 146.853 203.685 C 145.672 203.183 144.364 202.813 143.396 202.012 C 142.253 201.066 140.518 202.57 141.663 203.517 M 144.736 228.058 C 145.539 227.71 146.376 227.311 147.293 227.284 C 148.869 227.236 148.871 225.107 147.293 225.155 C 145.918 225.196 144.71 225.695 143.499 226.22 C 142.086 226.832 143.329 228.668 144.736 228.058 M 159.468 326.554 C 159.831 325.964 160.378 325.715 161.056 325.702 C 162.634 325.67 162.634 323.541 161.056 323.572 C 159.509 323.603 158.091 324.278 157.352 325.479 C 156.608 326.689 158.724 327.763 159.468 326.554 M 164.57 280.32 C 165.058 279.931 165.024 279.209 164.57 278.814 C 164.041 278.354 163.511 277.895 162.981 277.435 C 162.497 277.014 161.738 277.044 161.249 277.435 C 160.761 277.823 160.795 278.546 161.249 278.94 C 161.778 279.4 162.308 279.86 162.837 280.32 C 163.322 280.741 164.081 280.71 164.57 280.32 M 170.585 352.376 C 172.353 352.34 174.01 351.899 175.675 351.418 C 177.166 350.987 176.523 348.931 175.023 349.365 C 173.577 349.783 172.123 350.215 170.585 350.247 C 169.008 350.278 169.007 352.407 170.585 352.376 M 178.525 306.846 C 180.123 306.807 181.448 306.101 182.568 305.154 C 183.701 304.197 181.966 302.693 180.835 303.649 C 180.194 304.19 179.454 304.694 178.525 304.717 C 176.949 304.755 176.947 306.884 178.525 306.846 M 173.595 248.294 C 173.575 248.861 173.3 249.468 172.895 249.841 C 171.812 250.837 173.542 252.345 174.628 251.346 C 175.523 250.523 176.008 249.421 176.045 248.294 C 176.091 246.921 173.64 246.927 173.595 248.294 M 192.288 201.922 C 192.8 201.05 193.473 200.026 194.495 199.544 C 195.883 198.89 194.645 197.052 193.258 197.706 C 191.868 198.361 190.874 199.653 190.171 200.847 C 189.455 202.066 191.57 203.142 192.288 201.922 M 195.464 224.064 C 196.033 224.05 196.597 223.966 197.146 223.837 C 197.38 223.781 197.611 223.718 197.846 223.662 C 197.947 223.639 198.373 223.592 198.111 223.604 C 198.775 223.574 199.336 223.142 199.336 222.54 C 199.336 221.987 198.773 221.444 198.111 221.475 C 197.202 221.518 196.374 221.913 195.464 221.935 C 193.888 221.974 193.887 224.103 195.464 224.064 M 203.405 258.097 H 206.051 C 207.631 258.097 207.628 255.967 206.051 255.967 H 203.405 C 201.825 255.967 201.828 258.097 203.405 258.097 M 206.492 352.23 C 207.295 352.579 208.241 352.91 208.891 353.443 C 210.037 354.385 211.772 352.881 210.624 351.938 C 209.795 351.258 208.737 350.83 207.729 350.392 C 207.135 350.134 206.404 350.25 206.052 350.774 C 205.734 351.247 205.9 351.973 206.492 352.23 M 212.406 325.328 C 212.508 325.303 212.617 325.286 212.721 325.274 C 213.137 325.225 213.573 325.242 213.992 325.242 C 215.571 325.241 215.569 323.112 213.992 323.113 C 212.749 323.113 211.456 323.128 210.478 323.884 C 209.982 324.268 210.03 325.001 210.478 325.39 C 210.965 325.813 211.717 325.772 212.211 325.39 C 212.159 325.43 212.338 325.345 212.406 325.328 M 213.991 289.147 C 213.635 288.51 213.63 288.094 213.629 287.385 C 213.628 286.013 211.177 286.015 211.178 287.385 C 211.179 288.414 211.355 289.29 211.875 290.222 C 212.165 290.742 213.014 290.877 213.551 290.604 C 214.153 290.298 214.279 289.665 213.991 289.147 M 221.077 239.203 C 222.498 239.623 223.767 240.218 225.019 240.935 C 226.34 241.693 227.566 239.848 226.256 239.097 C 224.827 238.278 223.35 237.629 221.729 237.15 C 220.229 236.707 219.592 238.764 221.077 239.203 M 229.343 203.369 C 230.399 203.395 231.489 203.746 232.43 204.143 C 233.844 204.74 235.085 202.903 233.667 202.305 C 232.322 201.738 230.852 201.277 229.343 201.24 C 227.763 201.201 227.769 203.331 229.343 203.369 M 233.048 299.028 C 233.464 299.044 233.819 298.849 234.039 298.568 C 234.062 298.568 234.084 298.568 234.107 298.568 C 234.794 298.567 235.302 298.08 235.332 297.503 C 235.362 296.928 234.748 296.438 234.107 296.438 C 233.675 296.439 233.245 296.462 232.843 296.609 C 232.194 296.847 231.849 297.361 231.823 297.963 C 231.797 298.559 232.405 299.003 233.048 299.028 M 239.075 225.406 C 240.58 225.833 241.219 223.777 239.727 223.353 C 237.975 222.856 236.184 222.47 234.433 221.973 C 232.928 221.546 232.289 223.603 233.781 224.026 C 235.533 224.523 237.323 224.909 239.075 225.406 M 244.571 265.593 C 245.038 266.9 247.402 266.339 246.934 265.027 C 246.482 263.761 246.45 262.487 246.449 261.171 C 246.448 259.799 243.997 259.801 243.998 261.171 C 243.999 262.668 244.057 264.152 244.571 265.593 M 260.956 313.727 C 261.045 314.257 261.529 314.639 262.163 314.664 C 262.808 314.689 263.411 314.157 263.388 313.6 C 263.343 312.528 262.337 311.654 261.104 311.615 C 260.418 311.593 259.907 312.12 259.879 312.68 C 259.85 313.223 260.373 313.648 260.956 313.727 M 269.248 252.54 C 270.543 252.916 271.927 253.273 272.942 254.106 C 274.089 255.046 275.824 253.543 274.675 252.6 C 273.336 251.502 271.614 250.984 269.899 250.487 C 268.398 250.051 267.76 252.108 269.248 252.54 M 274.868 293.901 C 275.224 294.43 275.945 294.525 276.544 294.283 C 277.348 293.959 278.235 293.969 279.102 293.969 C 280.681 293.968 280.679 291.838 279.102 291.84 C 277.765 291.841 276.532 291.95 275.307 292.445 C 274.705 292.688 274.558 293.441 274.868 293.901 M 278.043 344.098 C 278.729 344.119 279.24 343.592 279.269 343.033 C 279.297 342.489 278.775 342.065 278.191 341.985 C 278.102 341.455 277.618 341.073 276.985 341.049 C 276.339 341.023 275.736 341.556 275.759 342.113 C 275.804 343.185 276.809 344.058 278.043 344.098 M 54.7762 352.148 C 55.1925 350.846 56.1452 349.795 56.8651 348.624 C 57.1065 348.229 57.1904 347.984 57.3212 347.695 C 57.4989 348.004 57.8438 348.236 58.3625 348.237 C 59.3574 348.237 60.5212 348.181 61.4497 348.551 C 62.0535 348.792 62.7648 348.706 63.126 348.169 C 63.4363 347.708 63.2881 346.952 62.6864 346.713 C 61.318 346.168 59.847 346.108 58.3625 346.107 C 57.9958 346.107 57.7182 346.225 57.5222 346.401 C 56.9548 339.651 56.9689 332.897 57.5056 326.143 C 58.0782 318.925 59.3957 311.851 60.7743 304.726 C 61.4418 301.272 62.3087 297.782 62.1402 294.264 C 61.9717 290.77 60.2471 287.512 61.4693 284.007 C 61.9595 282.602 62.7989 281.313 63.3441 279.924 C 63.9292 278.428 63.8772 276.951 63.6106 275.402 C 63.0623 272.249 62.1528 269.132 63.6079 266.053 C 64.2509 264.687 65.2928 263.468 65.7948 262.058 C 66.4198 260.304 66.334 258.364 66.4381 256.546 C 66.6495 252.879 66.7047 249.187 67.0542 245.528 C 67.2101 243.888 67.5501 242.334 68.3252 240.83 C 69.0699 239.382 70.1755 238.065 70.6687 236.529 C 71.1588 235.018 71.2017 233.423 71.4651 231.877 C 71.7408 230.243 72.1728 228.633 72.7548 227.063 C 75.0034 220.984 79.1236 215.522 83.9913 210.788 C 89.1654 205.755 95.3503 201.965 101.915 198.433 C 105.367 196.576 108.819 194.719 112.269 192.862 C 112.342 193.21 112.598 193.53 113.089 193.673 C 114.385 194.049 115.768 194.406 116.783 195.239 C 117.93 196.179 119.666 194.676 118.516 193.733 C 117.317 192.75 115.81 192.232 114.277 191.777 C 115.849 190.917 117.437 190.025 119.211 189.528 C 120.764 189.092 123.056 189.472 124.315 188.482 C 125.304 187.702 125.617 186.257 125.996 185.198 C 126.471 183.883 126.882 182.497 127.485 181.219 C 127.896 180.346 128.493 179.508 129.247 178.832 C 129.577 177.725 130.184 176.713 131.257 176.098 C 134.062 174.486 137.509 176.088 138.743 178.387 C 139.763 178.385 140.838 178.579 141.831 178.632 C 143.871 178.744 145.914 178.794 147.958 178.789 C 151.955 178.779 155.956 178.552 159.92 178.092 C 167.009 177.267 173.886 175.603 180.855 174.307 C 180.895 174.227 180.941 174.148 180.996 174.068 C 182.497 171.88 186.238 172.25 188.594 173.078 C 189.604 173.432 190.634 173.879 191.213 174.709 C 191.825 175.068 192.355 175.505 192.708 175.965 C 193.437 176.916 194 178.832 195.48 178.991 C 196.454 179.095 197.444 178.933 198.433 179.055 C 199.671 179.204 200.78 179.582 201.922 180.013 C 210.622 183.295 219.616 186.944 229.058 188.216 C 231.273 188.514 233.527 188.823 235.451 189.901 C 237.013 190.776 238.221 191.979 239.51 193.121 C 240.766 194.234 241.801 194.726 243.593 194.926 C 245.768 195.168 247.652 195.689 249.242 197.063 C 250.563 198.204 251.423 199.663 252.459 200.988 C 253.513 202.34 255.06 203.101 256.665 203.887 C 260.46 205.744 263.996 207.988 267.074 210.679 C 273.559 216.353 277.487 223.645 281.445 230.751 C 285.724 238.438 289.725 246.217 292.5 254.425 C 295.221 262.484 296.838 270.774 297.586 279.142 C 298.373 287.922 298.483 296.737 299.139 305.522 C 299.466 309.911 299.715 314.305 299.966 318.696 C 300.211 323.034 300.569 327.38 300.511 331.724 C 300.401 340.121 298.468 348.544 295.089 356.406 C 294.246 358.362 293.312 360.292 292.317 362.192 C 291.443 363.861 288.457 363.675 287.519 362.192 C 287.305 361.852 287.136 361.5 286.995 361.144 C 284.545 361.162 282.069 360.997 279.634 361.194 C 275.333 361.543 271.023 361.737 266.71 361.969 C 258.175 362.429 249.625 362.735 241.088 363.158 C 240.259 363.199 239.431 363.241 238.603 363.283 C 244.687 346.923 243.898 329.235 244.861 312.22 C 244.938 310.848 242.487 310.856 242.41 312.22 C 241.443 329.308 242.266 347.041 235.967 363.428 C 233.523 363.572 231.083 363.748 228.65 364.005 C 226.684 364.21 224.708 364.452 222.723 364.367 C 220.471 364.273 218.272 363.826 216.075 363.438 C 212.084 362.732 208.239 363.052 204.232 363.486 C 199.946 363.951 195.645 364.21 191.332 364.372 C 174.061 365.029 156.673 365.628 139.408 364.625 C 135.229 364.383 131.06 364.042 126.909 363.579 C 122.633 363.102 118.402 362.301 114.129 361.846 C 109.917 361.399 106.045 362.626 101.881 362.852 C 97.6359 363.084 93.2764 362.315 89.0704 361.873 C 87.6983 361.728 86.3247 361.588 84.9508 361.448 C 86.7196 350.916 87.7253 340.304 88.7022 329.696 C 88.8281 328.328 86.3765 328.339 86.2515 329.696 C 85.2825 340.221 84.2992 350.754 82.5331 361.203 C 75.25 360.467 67.9597 359.722 60.7525 358.575 C 58.7 358.251 56.6598 357.721 55.4314 356.129 C 54.5219 354.95 54.3378 353.505 54.7762 352.148" stroke-linecap="round"/>
</g>
		<g transform="matrix(1 0 0 1 -13.0666 -68.9509)">
<path style="stroke: none; stroke-width: 1; stroke-dasharray: none; stroke-linecap: butt; stroke-dashoffset: 0; stroke-linejoin: miter; stroke-miterlimit: 4; is-custom-font: none; font-file-url: none; fill: rgb(237,185,138); fill-rule: evenodd; opacity: 1;" transform=" translate(-160.9335, -135.0491)" d="M 110.075 128.815 C 110.733 123.781 109.882 113.259 109.825 112.619 C 109.464 108.578 111.639 92.6192 115.751 94.0897 C 122.648 89.3361 131.834 88.2864 140.424 87.785 C 158.266 86.7433 177.247 89.1346 191.025 99.5888 C 197.839 105.018 204.472 112.914 203.939 121.136 C 210.129 128.929 218.856 139.619 211.143 148.73 C 208.521 151.641 204.354 152.725 201.061 154.93 C 194.436 159.582 190.28 166.258 183.592 170.883 C 165.874 184.744 135.789 187.64 118.381 171.874 C 104.92 160.455 107.096 143.372 109.464 128.815 C 111.056 119.028 108.792 138.636 110.075 128.815 Z" stroke-linecap="round"/>
</g>
		<g transform="matrix(1 0 0 1 -12.1585 -79.8074)">
<path style="stroke: none; stroke-width: 1; stroke-dasharray: none; stroke-linecap: butt; stroke-dashoffset: 0; stroke-linejoin: miter; stroke-miterlimit: 4; is-custom-font: none; font-file-url: none; fill: rgb(0,0,0); fill-rule: evenodd; opacity: 1;" transform=" translate(-161.8416, -124.1926)" d="M 164.259 66.4364 C 159.487 65.598 154.587 65.0764 149.714 65.2334 L 149.339 65.2461 C 145.672 65.3737 141.029 65.6559 137.83 67.5121 C 137.646 67.3514 137.35 67.2689 137.082 67.3804 C 133.281 68.96 129.1 70.102 125.098 71.2368 C 121.114 72.3661 116.981 73.1116 112.806 73.412 C 111.235 73.5251 109.891 75.002 110.885 76.3266 C 111.122 76.6422 111.352 76.9611 111.582 77.2807 C 111.198 77.2458 110.814 77.2099 110.43 77.1761 C 109.167 77.0654 107.904 78.2394 107.979 79.3103 C 108.026 79.9839 108.11 80.6496 108.233 81.3072 C 107.752 81.2984 107.274 81.3612 106.811 81.5313 C 104.471 82.3918 104.634 84.8187 104.809 86.6652 C 105.052 89.2277 106.153 91.9418 108.196 93.8597 C 106.67 95.2396 105.59 96.8876 104.946 98.8448 C 104.478 100.274 104.218 101.796 104.347 103.284 L 104.387 103.73 C 104.546 105.344 104.862 107.131 106.196 108.293 C 106.881 108.892 107.724 109.11 108.529 109.041 C 108.042 112.762 107.731 116.504 107.437 120.232 L 107.299 122.014 C 106.645 130.632 106.153 139.306 106.282 147.938 C 106.401 156.005 108.232 163.835 113.915 170.385 C 119.09 176.349 126.521 180.746 134.928 182.417 C 139.458 183.319 144.083 183.383 148.669 182.808 C 150.891 182.529 153.129 182.1 155.238 181.424 C 157.574 180.674 159.252 179.569 160.823 177.914 C 161.566 177.129 161.209 175.457 159.729 175.614 C 157.491 175.851 155.448 176.135 153.302 176.712 L 152.995 176.796 C 150.858 177.392 148.644 177.837 146.41 178.026 C 141.834 178.411 137.187 178.023 132.803 176.815 C 125.665 174.845 119.518 170.456 115.578 164.942 C 110.901 158.405 110.372 150.985 110.439 143.469 C 110.512 135.222 110.82 126.97 111.323 118.731 L 111.408 117.358 C 111.674 113.118 111.931 108.876 112.157 104.633 C 112.227 103.303 112.334 101.961 112.527 100.633 C 114.291 99.7337 115.871 98.4935 116.901 96.9632 C 118.971 97.7084 121.147 98.246 123.15 98.6745 C 127.788 99.6677 132.604 99.9089 137.326 99.2869 C 138.599 99.7449 139.898 100.148 141.217 100.494 C 141.573 100.632 141.93 100.767 142.286 100.899 C 145.465 102.084 148.69 103.087 152.047 103.822 L 152.871 104.001 C 154.637 104.38 156.556 104.753 158.436 104.87 C 158.744 104.974 159.078 105.062 159.442 105.139 C 161.153 105.501 162.93 105.616 164.684 105.488 C 166.393 105.363 167.628 103.859 166.687 102.451 C 165.999 101.424 165.305 100.399 164.604 99.3771 C 167.041 100.261 169.557 100.995 172.094 101.618 C 174.656 102.246 177.254 102.776 179.856 103.263 C 181.247 103.521 182.643 103.75 184.031 104.008 C 185.025 104.192 186.55 104.287 187.36 104.857 C 188.256 105.482 188.51 106.941 188.849 107.841 C 189.296 109.009 189.714 110.183 190.096 111.37 C 190.857 113.738 191.481 116.142 191.964 118.569 C 192.447 120.999 192.771 123.453 192.952 125.914 C 193.132 128.374 193.052 130.849 193.343 133.297 C 193.499 134.596 195.1 135.264 196.283 134.357 C 196.422 134.25 196.562 134.142 196.7 134.034 L 196.907 133.869 C 197.919 133.071 198.9 132.225 199.71 131.272 C 199.857 131.096 199.997 130.913 200.129 130.726 C 200.15 130.726 200.169 130.721 200.19 130.708 L 200.415 130.561 C 202.887 128.958 207.017 126.87 209.428 129.531 C 210.196 130.379 210.59 131.459 210.916 132.501 L 211.489 134.365 C 211.859 135.582 212.208 136.805 212.412 138.051 C 212.874 140.84 212.641 144.055 210.437 146.29 C 209.556 147.185 208.343 147.823 206.989 147.991 C 206.234 148.082 205.488 147.97 204.739 147.887 C 203.978 147.805 203.244 147.938 202.483 147.874 C 201.272 147.77 200.743 149.032 201.196 149.825 C 201.44 150.251 201.728 150.618 202.055 150.929 C 201.792 151.126 201.541 151.339 201.3 151.563 C 200.584 151.762 199.943 152.191 199.463 152.758 C 199.074 153.216 198.873 153.713 198.839 154.238 C 198.796 154.368 198.76 154.501 198.726 154.637 L 198.07 155.563 C 197.926 155.767 197.782 155.967 197.638 156.164 C 195.969 158.453 194.116 160.391 191.814 162.217 C 189.598 163.973 187.192 165.546 185.11 167.43 L 184.865 167.654 C 182.924 169.435 180.878 171.59 181.638 174.18 C 181.833 174.845 182.9 175.324 183.597 174.874 C 185.838 173.427 186.966 171.132 188.867 169.376 C 190.824 167.566 192.991 165.94 194.954 164.135 C 196.809 162.432 198.274 160.503 199.377 158.379 C 199.817 158.802 200.459 159.103 201.349 159.22 C 202.877 159.419 204.302 158.64 204.968 157.487 C 205.396 157.652 205.833 157.801 206.274 157.918 C 208.591 158.536 210.049 156.292 209.174 154.634 C 208.707 153.745 208.123 152.973 207.398 152.324 C 209.664 152.052 211.969 151.033 213.457 149.761 C 217.193 146.565 217.706 141.761 216.866 137.489 C 216.419 135.224 215.649 132.933 214.649 130.806 C 214.475 130.436 214.289 130.064 214.084 129.696 C 214.197 129.694 214.313 129.651 214.387 129.569 C 215.062 128.765 215.884 128.107 216.386 127.208 C 216.848 126.383 217.361 125.547 217.725 124.687 C 218.473 122.928 218.84 120.943 219.085 119.082 C 219.589 115.274 219.394 111.489 218.724 107.705 C 217.584 101.259 214.831 95.0901 210.774 89.6772 C 210.995 89.5761 211.206 89.4542 211.404 89.3099 L 211.501 89.2359 L 211.659 89.1114 C 212.817 88.1993 212.717 86.4899 211.659 85.5661 L 211.325 85.2745 C 210.902 84.9087 210.537 84.6188 209.854 84.2204 C 209.753 84.1616 209.65 84.1063 209.546 84.0546 C 209.904 83.4792 210.028 82.8064 209.779 82.0641 C 208.911 79.4783 204.637 79.5698 201.928 80.6975 C 198.932 78.369 195.609 76.3476 192.007 74.7108 C 183.429 70.8145 173.73 68.0971 164.259 66.4364 Z M 208.6 134.543 C 206.998 134.088 204.87 135.043 203.43 135.618 C 201.605 136.347 200.052 137.425 198.548 138.564 C 197.799 139.134 197.665 140.065 197.851 140.861 C 197.87 140.941 197.888 141.023 197.91 141.106 C 198.109 141.955 199.197 142.623 200.16 142.599 C 202.174 142.551 203.134 141.037 204.274 139.754 C 204.409 139.962 204.577 140.153 204.785 140.297 L 204.925 140.393 C 205.399 140.706 205.92 140.957 206.546 140.933 C 206.989 140.914 207.413 140.816 207.805 140.638 C 208.783 140.188 209.214 139.086 208.948 138.189 C 208.783 137.625 208.404 137.183 207.909 136.877 L 208.094 136.767 C 208.489 136.528 208.849 136.275 209.13 135.903 L 209.193 135.815 H 209.168 C 209.474 135.357 209.275 134.734 208.6 134.543 Z" stroke-linecap="round"/>
</g>
		<g transform="matrix(1 0 0 1 -33.1002 -67.2261)">
<path style="stroke: none; stroke-width: 1; stroke-dasharray: none; stroke-linecap: butt; stroke-dashoffset: 0; stroke-linejoin: miter; stroke-miterlimit: 4; is-custom-font: none; font-file-url: none; fill: rgb(0,0,0); fill-rule: evenodd; opacity: 1;" transform=" translate(-140.8999, -136.7739)" d="M 140.43 161.531 C 142.489 160.801 144.326 159.583 145.67 158.028 C 146.137 157.488 146.258 156.917 146.16 156.394 C 146.05 155.807 145.65 155.275 145.104 154.918 C 144.557 154.56 143.873 154.384 143.212 154.474 C 142.637 154.552 142.065 154.825 141.612 155.392 L 141.517 155.506 C 140.719 156.444 139.678 157.214 138.492 157.711 C 137.349 158.189 136.071 158.413 134.748 158.283 C 132.229 158.036 130.493 156.852 128.647 155.244 C 128.418 155.042 128.189 154.832 127.959 154.62 C 127.814 154.427 127.613 154.303 127.389 154.238 C 127.14 154.166 126.859 154.17 126.602 154.248 C 126.353 154.323 126.131 154.466 125.982 154.656 C 125.841 154.836 125.761 155.059 125.787 155.316 C 125.956 156.981 126.958 158.468 128.382 159.636 C 129.963 160.932 132.06 161.829 134.033 162.144 C 136.208 162.49 138.423 162.242 140.43 161.531 V 161.531 Z M 133.008 135.832 C 130.694 137.054 127.17 139.902 129.658 142.931 C 132.587 145.601 136.805 142.539 138.883 141.155 C 140.81 140.081 142.976 142.842 141.188 144.095 C 126.17 153.754 120.075 136.151 131.838 134.396 C 133.133 134.202 133.614 135.454 133.008 135.832 Z M 159.92 124.595 C 159.664 121.839 154.832 121.213 154.352 123.94 C 153.921 126.384 154.428 128.628 155.695 130.828 C 156.905 132.929 159.947 131.949 160.177 130.035 C 160.486 127.47 160.079 126.31 159.92 124.595 Z M 123.14 123.375 C 122.466 122.608 121.493 122.085 120.328 122.381 C 116.687 123.305 117.76 127.796 119.039 129.982 C 119.734 131.169 121.98 131.47 122.994 130.425 C 124.649 128.72 125.441 125.316 123.338 123.638 C 123.281 123.551 123.217 123.463 123.14 123.375 Z M 155.746 112.535 L 155.171 112.447 C 153.392 112.18 151.18 111.923 149.921 113.166 C 149.253 113.825 149.024 115.049 149.921 115.68 C 151.499 116.79 153.244 116.36 155.135 116.454 C 156.694 116.532 158.192 116.756 159.693 117.128 C 162.987 117.946 165.671 119.439 168.484 121.079 C 168.853 121.294 169.23 120.884 169.054 120.584 C 167.43 117.82 164.283 115.551 161.131 114.167 C 159.448 113.428 157.607 112.816 155.746 112.535 Z M 126.459 111.297 L 126.018 111.375 C 121.228 112.245 115.004 113.983 112.736 118.07 C 112.65 118.649 112.741 118.772 112.815 118.853 L 112.84 118.88 C 112.901 118.949 112.95 119.045 113.238 119.123 C 113.318 119.107 113.399 119.089 113.481 119.071 C 114.521 118.834 115.343 118.508 116.14 118.169 L 117.003 117.8 C 118.005 117.373 119.016 116.962 120.087 116.658 C 122.373 116.01 124.724 115.554 127.112 115.31 C 127.63 115.257 128.128 115.106 128.521 114.846 C 128.894 114.599 129.179 114.257 129.309 113.803 C 129.478 113.215 129.429 112.77 129.066 112.239 C 128.793 111.841 128.403 111.565 127.954 111.406 C 127.497 111.245 126.976 111.207 126.459 111.297 Z" stroke-linecap="round"/>
</g>
		<g transform="matrix(1 0 0 1 -20.3713 -41.3859)">
<path style="stroke: none; stroke-width: 1; stroke-dasharray: none; stroke-linecap: butt; stroke-dashoffset: 0; stroke-linejoin: miter; stroke-miterlimit: 4; is-custom-font: none; font-file-url: none; fill: rgb(0,0,0); fill-rule: evenodd; opacity: 1;" transform=" translate(-153.6287, -162.6141)" d="M 160.299 163.198 C 157.819 158.15 152.406 154.44 146.173 153.083 C 141.597 152.09 136.794 152.122 132.128 152.516 C 129.684 152.721 127.062 152.889 124.758 153.678 C 122.791 154.352 121.188 155.625 119.983 157.12 C 118.548 158.892 117.572 160.919 116.887 162.997 C 116.789 163.293 116.698 163.59 116.613 163.89 C 116.911 165.458 117.543 166.792 119.215 167.778 C 120.846 168.74 122.792 169.134 124.733 169.274 C 124.923 169.195 125.107 169.113 125.275 169.03 C 128.299 167.526 130.427 163.972 134.243 164.453 C 137.649 164.883 139.891 168.605 141.916 170.788 C 148.417 171.447 154.913 169.749 160.203 166.52 C 160.471 165.414 160.487 164.3 160.299 163.198 M 112.194 159.369 C 112.714 158.101 113.369 156.873 114.146 155.716 C 116.712 151.89 120.653 148.842 125.33 147.099 C 136.396 142.983 150.713 145.885 159.65 152.636 C 162.702 154.944 165.789 158.335 166.722 161.983 C 167.001 162.031 167.264 162.157 167.481 162.334 C 173.937 158.803 180.586 155.405 185.789 150.51 C 189.567 146.953 192.195 142.744 193.804 138.118 C 193.935 137.737 194.642 137.793 194.621 138.214 C 194.615 138.313 194.609 138.411 194.602 138.51 C 194.67 138.329 194.988 138.422 195.012 138.598 C 195.878 144.217 196.961 150.174 195.964 155.822 C 195.367 159.193 193.605 161.66 191.249 164.324 C 188.725 167.18 185.868 169.837 182.946 172.384 C 181.092 174.001 179.156 175.866 176.886 177.051 C 174.246 178.429 171.251 179.476 168.433 180.539 C 165.566 181.623 162.657 182.625 159.693 183.494 C 153.767 185.236 147.642 186.44 141.41 186.968 C 136.42 187.389 130.718 187.847 125.936 186.217 C 122.271 184.967 119.313 182.708 116.966 179.99 C 114.412 177.03 112.392 173.658 111.276 170.103 C 110.116 166.41 111.95 159.964 112.194 159.369" stroke-linecap="round"/>
</g>
		<g transform="matrix(1 0 0 1 -14.2964 -73.5653)">
<path style="stroke: none; stroke-width: 1; stroke-dasharray: none; stroke-linecap: butt; stroke-dashoffset: 0; stroke-linejoin: miter; stroke-miterlimit: 4; is-custom-font: none; font-file-url: none; fill: rgb(0,0,0); fill-rule: evenodd; opacity: 1;" transform=" translate(-159.7035, -130.4347)" d="M 107.177 138.214 C 109.24 140.621 113.064 141.388 116.591 141.123 C 124.197 140.487 126.591 132.981 126.841 127.148 C 121.74 128.394 127.272 119.565 109.835 118.594 C 103.689 118.149 105.383 121.374 102.668 123.731 C 102.724 128.676 103.671 134.05 107.177 138.214 M 143.408 132.531 C 147.899 150.803 172.491 146.456 175.075 129.986 C 172.689 128.523 173.318 124.911 170.354 123.603 C 165.657 120.995 159.786 121.107 154.452 121.168 C 147.635 121.575 145.692 124.029 142.19 126.706 C 142.358 128.493 142.844 130.613 143.408 132.531 M 97.4355 115.568 C 97.6876 115.532 97.94 115.497 98.1925 115.465 C 98.3894 115.368 98.6207 115.293 98.8897 115.248 C 99.5039 115.113 100.114 115.022 100.723 114.972 C 109.463 113.263 129.684 115.69 130.518 122.17 C 133.302 122.977 135.71 122.254 138.936 122.326 C 141.392 113.409 183.845 114.668 185.887 120.044 C 185.894 120.042 185.902 120.04 185.91 120.038 C 187.872 119.511 190.764 119.638 193.009 119.554 C 197.804 119.467 202.604 119.838 207.295 120.717 C 216.079 121.93 228.068 123.349 221.958 132.88 C 221.957 132.881 221.956 132.883 221.955 132.885 L 221.954 132.884 C 220.901 133.821 219.114 133.066 219.047 131.797 C 221.101 127.282 216.462 126.74 212.893 125.443 C 204.011 122.671 194.969 122.286 185.783 123.144 C 185.092 123.851 184.043 124.467 182.935 124.79 C 176.793 125.675 180.03 129.633 176.148 130.209 C 176.861 144.007 157.579 151.538 146.408 142.468 C 141.947 138.679 140.884 133.066 139.85 128.007 C 139.303 127.901 138.955 127.641 138.752 127.297 C 137.437 126.156 136.611 125.103 134.01 124.79 C 131.41 124.477 129.408 125.105 129.137 125.297 C 129.069 125.417 128.995 125.537 128.91 125.656 C 128.791 125.835 128.63 125.977 128.446 126.089 C 131.014 139.829 118.737 148.518 106.343 141.392 C 100.957 136.991 99.8191 130.252 99.5943 124.238 C 98.8643 123.855 98.402 123.114 98.6547 122.181 C 99.003 120.896 98.1863 119.783 96.8856 119.224 C 95.1956 118.498 95.4945 115.847 97.4355 115.568" stroke-linecap="round"/>
</g>
</g>
</g>
</svg>